<svg xmlns="http://www.w3.org/2000/svg" xmlns:xlink="http://www.w3.org/1999/xlink" width="1080" zoomAndPan="magnify" viewBox="0 0 810 809.999993" height="1080" preserveAspectRatio="xMidYMid meet" version="1.0"><defs><g/><clipPath id="5638bb29de"><path d="M 242 555 L 483 555 L 483 710.25 L 242 710.25 Z M 242 555 " clip-rule="nonzero"/></clipPath></defs><g clip-path="url(#5638bb29de)"><path fill="#3e3d4f" d="M 481.222656 563.378906 C 483.941406 607.585938 482.964844 665.394531 479.480469 710.199219 L 242.007812 710.199219 C 244.941406 675.894531 249.445312 641.589844 261.6875 609.285156 C 260.835938 607.542969 261.09375 605.289062 263.34375 604.183594 C 269.890625 600.996094 277.03125 599.210938 284.34375 599.46875 C 291.867188 599.679688 299.050781 603.082031 306.574219 601.507812 C 313.585938 600.0625 320.554688 597.851562 327.484375 595.980469 C 334.582031 594.070312 341.679688 592.15625 348.78125 590.242188 L 392.007812 578.636719 C 420.652344 570.945312 449.257812 563.25 477.863281 555.558594 C 482.5 554.324219 484.625 560.742188 481.179688 562.953125 C 481.222656 563.125 481.222656 563.25 481.222656 563.378906 Z M 481.222656 563.378906 " fill-opacity="1" fill-rule="nonzero"/></g><path fill="#749cf7" d="M 568.953125 498.46875 C 562.917969 473.136719 551.484375 426.167969 544.128906 401.171875 C 540.21875 387.996094 536.136719 374.859375 531.886719 361.769531 C 527.976562 349.824219 522.664062 338.433594 517.097656 327.082031 C 510.082031 312.800781 475.355469 299.324219 478.800781 301.195312 C 474.632812 299.964844 474.675781 325.511719 473.570312 332.734375 C 471.234375 347.910156 470.46875 363.339844 470.339844 378.6875 C 470.128906 409.800781 472.128906 440.957031 473.402344 471.988281 C 474.039062 487.84375 474.675781 503.699219 475.316406 519.554688 C 475.441406 522.613281 475.527344 525.632812 475.613281 528.691406 C 472.722656 537.320312 472.550781 546.757812 475.015625 555.558594 C 477.90625 565.84375 484.242188 574.089844 492.613281 580.550781 C 501.15625 587.140625 517.140625 596.320312 538.773438 593.984375 C 548.847656 592.878906 542.386719 586.203125 547.570312 577.320312 C 550.675781 572.050781 570.058594 497.746094 568.953125 498.46875 Z M 568.953125 498.46875 " fill-opacity="1" fill-rule="nonzero"/><path fill="#380d0d" d="M 636.917969 396.539062 C 632.835938 392.753906 627.652344 390.460938 622.464844 388.761719 C 616.300781 386.71875 609.925781 385.148438 603.636719 383.488281 C 597.21875 381.789062 590.714844 380.132812 584.167969 379.109375 C 578.898438 378.304688 573.246094 377.367188 570.992188 382.765625 C 570.863281 383.105469 569.84375 384.507812 570.058594 384.296875 C 570.523438 390.503906 574.011719 396.792969 577.496094 401.765625 C 580.9375 406.742188 585.230469 411.117188 590.203125 414.519531 C 600.320312 421.449219 613.070312 423.660156 624.84375 420.003906 C 631.261719 418.003906 637.085938 414.308594 641.421875 409.121094 C 641.421875 409.164062 641.421875 409.164062 641.378906 409.207031 C 641.25 409.589844 642.527344 409.671875 642.738281 409.332031 C 644.78125 404.996094 640.316406 399.683594 636.917969 396.539062 Z M 636.917969 396.539062 " fill-opacity="1" fill-rule="nonzero"/><path fill="#380d0d" d="M 632.113281 414.605469 C 631.601562 413.285156 629.605469 412.605469 628.753906 414.222656 C 625.949219 419.535156 623.527344 425.0625 621.574219 430.757812 C 620.128906 434.964844 616.769531 441.808594 619.363281 446.144531 C 621.953125 450.4375 626.96875 448.015625 630.5 446.441406 C 635.640625 444.105469 640.273438 440.746094 644.269531 436.707031 C 644.78125 436.199219 645.714844 435.347656 645.585938 434.796875 C 648.859375 426.589844 640.105469 416.433594 632.113281 414.605469 Z M 632.113281 414.605469 " fill-opacity="1" fill-rule="nonzero"/><path fill="#802f1c" d="M 427.113281 120.117188 C 423.035156 113.484375 414.574219 110.46875 407.734375 113.484375 C 403.78125 107.917969 396.511719 105.28125 389.539062 106.386719 C 382.101562 107.621094 376.535156 112.933594 372.75 119.179688 C 365.738281 115.144531 356.8125 114.804688 349.585938 118.585938 C 343.167969 121.945312 338.875 128.234375 337.429688 135.164062 C 325.273438 134.867188 316.605469 145.960938 313.246094 157.183594 C 311.207031 163.941406 310.695312 171.464844 313.882812 177.96875 C 314.777344 179.753906 315.882812 181.328125 317.242188 182.730469 C 316.5625 186.765625 317.15625 191.019531 318.769531 194.886719 C 320.257812 198.371094 322.765625 200.410156 326.167969 201.898438 C 328.039062 202.707031 329.949219 203.472656 331.863281 204.195312 C 333.988281 216.523438 338.578125 226.042969 340.703125 238.371094 C 340.917969 239.644531 341.214844 242.238281 342.0625 242.664062 C 343.382812 243.640625 343.253906 244.875 344.867188 243.472656 C 346.3125 242.195312 349.714844 243.175781 351.5 243.089844 C 353.964844 243.003906 356.261719 242.324219 358.554688 241.386719 C 363.019531 239.5625 367.3125 237.09375 371.347656 234.460938 C 379 229.445312 386.011719 223.449219 392.089844 216.605469 C 403.484375 203.683594 411.726562 188.085938 415.511719 171.292969 C 421.25 167.085938 425.542969 161.21875 427.113281 154.207031 C 427.921875 150.722656 428.175781 146.597656 427.074219 143.15625 C 430.34375 135.800781 431.578125 127.425781 427.113281 120.117188 Z M 427.113281 120.117188 " fill-opacity="1" fill-rule="nonzero"/><path fill="#ff8f66" d="M 336.878906 277.648438 C 337.558594 278.242188 338.238281 278.835938 338.917969 279.433594 C 342.0625 282.023438 345.761719 283.726562 349.714844 284.875 C 357.109375 287 365.101562 287.253906 372.667969 286.105469 C 380.445312 284.914062 388.097656 282.195312 394.9375 278.285156 C 395.066406 278.199219 395.152344 278.15625 395.277344 278.070312 C 395.875 267.445312 396.851562 256.820312 398.167969 246.277344 C 398.339844 245.085938 397.574219 244.363281 396.640625 244.195312 C 396.511719 244.109375 396.382812 244.023438 396.214844 243.9375 C 390.09375 241.046875 387.289062 233.992188 383.929688 228.636719 C 380.359375 222.941406 376.492188 217.371094 371.5625 212.695312 C 363.996094 205.511719 350.308594 197.648438 340.363281 205.300781 C 339.214844 206.191406 339.429688 207.382812 340.195312 208.191406 C 339.726562 226.257812 339.683594 244.40625 338.410156 262.429688 C 338.066406 267.488281 337.558594 272.589844 336.878906 277.648438 Z M 336.878906 277.648438 " fill-opacity="1" fill-rule="nonzero"/><path fill="#ff8f66" d="M 421.078125 203.640625 C 421.207031 190.335938 421.757812 176.140625 418.359375 163.21875 C 411.769531 138.183594 385.25 128.871094 361.53125 135.460938 C 351.96875 138.097656 344.867188 143.582031 340.277344 152.464844 C 331.011719 170.445312 328.503906 193.609375 341.765625 209.339844 C 343.976562 218.945312 350.734375 233.652344 363.484375 244.40625 C 376.109375 255.035156 406.671875 265.574219 417.296875 243.597656 C 420.058594 237.902344 420.015625 231.144531 420.355469 224.9375 C 420.78125 217.882812 421.035156 210.785156 421.078125 203.640625 Z M 421.078125 203.640625 " fill-opacity="1" fill-rule="nonzero"/><path fill="#802f1c" d="M 413.683594 138.777344 C 406.96875 130.828125 397.148438 128.148438 387.117188 127.214844 C 381.636719 126.703125 376.023438 126.238281 370.585938 127.003906 C 365.1875 127.765625 360.128906 129.976562 355.367188 132.484375 C 346.527344 137.203125 337.175781 142.984375 332.332031 152.082031 C 329.523438 157.394531 327.953125 163.644531 327.101562 169.550781 C 326.421875 174.3125 326.550781 179.03125 328.207031 183.496094 C 327.910156 183.75 327.738281 184.175781 327.953125 184.640625 C 329.566406 188.511719 332.671875 191.699219 336.707031 193.015625 C 338.664062 193.652344 340.660156 193.652344 342.277344 192.886719 C 343.507812 191.484375 344.316406 189.613281 344.742188 187.914062 C 346.230469 181.878906 344.488281 175.671875 345.039062 169.550781 C 346.910156 148.042969 376.449219 140.773438 394.046875 143.835938 C 404.078125 145.578125 414.195312 152.378906 418.105469 162.113281 C 418.570312 163.261719 419.335938 161.6875 419.292969 160.457031 C 418.828125 153.65625 417.339844 143.113281 413.683594 138.777344 Z M 413.683594 138.777344 " fill-opacity="1" fill-rule="nonzero"/><path fill="#ff8f66" d="M 345.550781 205.980469 C 344.402344 202.410156 342.957031 198.925781 341.382812 195.523438 C 341.46875 195.226562 341.425781 194.886719 341.257812 194.503906 C 339.472656 190.804688 331.820312 181.410156 327.78125 187.789062 C 324.125 193.609375 329.015625 203.601562 332.289062 208.53125 C 334.457031 211.847656 341.851562 221.921875 346.3125 215.96875 C 348.4375 213.207031 346.484375 208.871094 345.550781 205.980469 Z M 345.550781 205.980469 " fill-opacity="1" fill-rule="nonzero"/><path fill="#380d0d" d="M 424.140625 144.21875 C 423.289062 145.664062 422.3125 147.191406 421.078125 148.382812 C 419.589844 149.828125 417.933594 149.574219 416.0625 149.148438 C 414.449219 148.765625 413.726562 151.273438 415.382812 151.65625 C 417.59375 152.210938 419.890625 152.507812 421.886719 151.144531 C 423.800781 149.828125 425.246094 147.492188 426.390625 145.535156 C 427.242188 144.089844 424.988281 142.773438 424.140625 144.21875 Z M 424.140625 144.21875 " fill-opacity="1" fill-rule="nonzero"/><path fill="#380d0d" d="M 404.585938 115.3125 C 395.875 119.351562 390.222656 128.660156 390.5625 138.222656 C 390.605469 139.882812 393.238281 139.925781 393.152344 138.222656 C 392.855469 129.511719 397.957031 121.222656 405.863281 117.566406 C 407.433594 116.886719 406.117188 114.632812 404.585938 115.3125 Z M 404.585938 115.3125 " fill-opacity="1" fill-rule="nonzero"/><path fill="#380d0d" d="M 373.730469 120.285156 C 368.628906 125.898438 365.78125 133.761719 369.394531 140.945312 C 370.160156 142.433594 372.410156 141.113281 371.648438 139.628906 C 368.585938 133.546875 371.308594 126.789062 375.558594 122.113281 C 376.703125 120.882812 374.878906 119.011719 373.730469 120.285156 Z M 373.730469 120.285156 " fill-opacity="1" fill-rule="nonzero"/><path fill="#380d0d" d="M 359.023438 141.03125 C 354.476562 137.96875 348.097656 137.925781 343.636719 141.199219 C 339.429688 144.304688 337.472656 149.660156 338.449219 154.757812 C 339.089844 154.25 339.726562 153.78125 340.363281 153.273438 C 335.136719 150.804688 329.992188 154.25 327.441406 158.839844 C 324.679688 163.8125 324.339844 169.976562 326.507812 175.207031 C 327.144531 176.734375 329.652344 176.054688 329.015625 174.523438 C 327.316406 170.445312 327.1875 165.855469 328.886719 161.773438 C 330.460938 157.988281 334.496094 153.398438 339.046875 155.566406 C 340.109375 156.078125 341.171875 155.226562 340.957031 154.078125 C 340.195312 150.042969 341.9375 145.578125 345.335938 143.199219 C 349.035156 140.605469 354.050781 140.816406 357.707031 143.28125 C 359.109375 144.21875 360.425781 141.964844 359.023438 141.03125 Z M 359.023438 141.03125 " fill-opacity="1" fill-rule="nonzero"/><path fill="#380d0d" d="M 336.75 136.777344 C 336.28125 139.925781 337.472656 142.816406 339.980469 144.726562 C 341.296875 145.746094 342.617188 143.496094 341.296875 142.476562 C 339.8125 141.328125 339.003906 139.328125 339.257812 137.460938 C 339.511719 135.84375 336.964844 135.121094 336.75 136.777344 Z M 336.75 136.777344 " fill-opacity="1" fill-rule="nonzero"/><path fill="#ffe1c9" d="M 414.832031 295.117188 C 414.40625 291.417969 409.347656 277.265625 408.117188 273.609375 C 406.671875 269.316406 404.417969 264.300781 399.613281 265.488281 C 395.917969 266.382812 392.472656 268.679688 388.777344 269.742188 C 384.78125 270.886719 380.65625 271.484375 376.535156 271.738281 C 369.648438 272.164062 362.722656 271.738281 355.921875 270.503906 C 349.5 269.316406 342.320312 267.871094 336.878906 263.703125 C 336.070312 263.066406 335.136719 261.960938 334.074219 262.003906 C 333.050781 262.046875 332.457031 262.855469 332.03125 263.789062 C 331.011719 265.914062 330.289062 268.253906 329.441406 270.464844 C 327.695312 274.925781 325.996094 279.390625 324.253906 283.8125 C 323.574219 284.53125 323.363281 285.9375 324.425781 286.699219 C 330.886719 291.292969 338.152344 293.84375 345.421875 296.265625 C 353.414062 298.941406 361.234375 301.960938 369.605469 302.683594 C 378.023438 303.40625 386.523438 303.917969 394.980469 303.320312 C 401.65625 302.855469 409.007812 302.214844 414.234375 296.988281 C 414.449219 296.773438 414.574219 296.605469 414.660156 296.390625 C 414.789062 296.050781 414.917969 295.628906 414.832031 295.117188 Z M 414.832031 295.117188 " fill-opacity="1" fill-rule="nonzero"/><path fill="#d15a2e" d="M 332.332031 194.25 C 334.625 195.90625 336.28125 198.242188 337.175781 200.921875 C 337.6875 202.496094 340.195312 201.816406 339.683594 200.242188 C 338.621094 196.839844 336.539062 194.078125 333.648438 191.996094 C 332.289062 191.019531 330.96875 193.269531 332.332031 194.25 Z M 332.332031 194.25 " fill-opacity="1" fill-rule="nonzero"/><path fill="#d15a2e" d="M 401.273438 174.355469 C 395.238281 176.394531 395.746094 185.363281 396.171875 190.421875 C 396.425781 193.269531 397.148438 196.078125 397.148438 198.964844 C 397.148438 202.28125 395.449219 204.195312 392.472656 205.34375 C 390.945312 205.9375 391.582031 208.488281 393.152344 207.851562 C 395.492188 206.914062 397.660156 205.683594 398.847656 203.386719 C 400.082031 200.878906 399.828125 197.988281 399.445312 195.3125 C 399.019531 192.207031 398.550781 189.191406 398.550781 186.042969 C 398.550781 183.238281 398.679688 177.925781 401.953125 176.820312 C 403.566406 176.308594 402.886719 173.800781 401.273438 174.355469 Z M 401.273438 174.355469 " fill-opacity="1" fill-rule="nonzero"/><path fill="#d15a2e" d="M 389.160156 201.304688 C 386.90625 201.816406 384.824219 202.792969 382.953125 204.195312 C 381.636719 205.214844 382.953125 207.46875 384.269531 206.449219 C 385.929688 205.171875 387.796875 204.28125 389.839844 203.8125 C 391.496094 203.429688 390.773438 200.921875 389.160156 201.304688 Z M 389.160156 201.304688 " fill-opacity="1" fill-rule="nonzero"/><path fill="#290707" d="M 379.085938 185.960938 C 374.664062 188.128906 369.777344 188.933594 365.3125 186.425781 C 363.1875 185.238281 361.234375 188.46875 363.359375 189.65625 C 369.054688 192.886719 375.300781 192.84375 380.996094 190.039062 C 383.164062 188.933594 381.253906 184.898438 379.085938 185.960938 Z M 379.085938 185.960938 " fill-opacity="1" fill-rule="nonzero"/><path fill="#290707" d="M 412.875 186.851562 C 410.582031 188.890625 405.691406 188.382812 403.441406 186.46875 C 401.613281 184.898438 398.976562 188.425781 400.847656 190.039062 C 404.714844 193.355469 411.558594 193.101562 415.511719 189.574219 C 417.339844 187.957031 414.703125 185.238281 412.875 186.851562 Z M 412.875 186.851562 " fill-opacity="1" fill-rule="nonzero"/><path fill="#802f1c" d="M 417.382812 174.269531 C 416.871094 172.867188 416.019531 171.59375 415.085938 170.953125 C 410.664062 168.023438 404.203125 169.847656 400.632812 173.335938 C 399.871094 174.058594 399.191406 174.949219 398.765625 175.886719 C 398.085938 177.332031 399.273438 178.777344 400.675781 178.988281 C 402.503906 179.242188 404.375 178.222656 406.160156 177.96875 C 409.261719 177.542969 411.515625 178.5625 414.40625 179.242188 C 418.019531 180.09375 418.359375 177.03125 417.382812 174.269531 Z M 417.382812 174.269531 " fill-opacity="1" fill-rule="nonzero"/><path fill="#5c1b17" d="M 400.890625 215.246094 C 400.71875 213.972656 400.253906 212.992188 399.273438 213.035156 C 396 213.25 392.730469 213.164062 389.414062 212.867188 C 386.523438 212.613281 383.503906 211.804688 380.613281 211.890625 C 379.210938 211.929688 377.851562 212.398438 377.128906 213.460938 C 376.320312 214.3125 375.941406 215.417969 375.898438 216.648438 C 375.8125 218.308594 376.023438 220.773438 377.214844 222.046875 C 378.488281 223.449219 380.742188 224.257812 382.441406 224.9375 C 384.566406 225.789062 386.820312 226.339844 389.117188 226.640625 C 394.515625 227.320312 399.699219 226.597656 400.675781 220.347656 C 400.804688 219.625 401.144531 217.117188 400.890625 215.246094 Z M 400.890625 215.246094 " fill-opacity="1" fill-rule="nonzero"/><path fill="#ffffff" d="M 390.390625 221.28125 C 393.832031 221.664062 398.976562 220.558594 399.488281 217.5 C 399.742188 215.96875 400.039062 214.863281 400.039062 213.292969 C 396.683594 213.503906 392.898438 213.25 389.542969 212.953125 C 386.523438 212.652344 383.378906 211.761719 380.316406 211.804688 C 378.871094 211.847656 377.425781 212.398438 376.664062 213.675781 C 375.898438 214.566406 375.515625 215.714844 375.386719 216.988281 C 377.300781 218.308594 383.292969 220.476562 390.390625 221.28125 Z M 390.390625 221.28125 " fill-opacity="1" fill-rule="nonzero"/><path fill="#802f1c" d="M 364.464844 178.988281 C 367.949219 178.136719 370.625 177.03125 374.410156 177.289062 C 376.578125 177.457031 378.871094 178.351562 381.082031 178.011719 C 382.824219 177.753906 384.183594 176.226562 383.292969 174.824219 C 382.699219 173.886719 381.890625 173.039062 380.914062 172.355469 C 376.449219 169.085938 368.542969 167.597656 363.273438 170.742188 C 362.125 171.421875 361.148438 172.78125 360.59375 174.183594 C 359.53125 176.949219 360.085938 180.007812 364.464844 178.988281 Z M 364.464844 178.988281 " fill-opacity="1" fill-rule="nonzero"/><path fill="#802f1c" d="M 421.929688 213.121094 C 421.886719 212.570312 421.078125 212.527344 420.996094 213.078125 C 420.441406 216.90625 419.507812 222.175781 418.230469 226.765625 C 417.933594 227.871094 416.359375 227.957031 415.980469 226.9375 C 412.75 218.265625 407.054688 208.191406 397.277344 206.574219 C 391.625 205.640625 383.164062 206.492188 377.808594 208.617188 C 375.257812 209.636719 372.582031 210.996094 370.625 212.953125 C 367.820312 215.757812 364.464844 220.175781 362.421875 224.300781 C 361.828125 225.492188 360.214844 225.617188 359.40625 224.554688 C 355.238281 219.15625 352.222656 212.953125 350.394531 206.148438 C 349.160156 201.515625 348.3125 196.714844 347.164062 192.039062 C 346.441406 189.105469 346.015625 184.726562 344.105469 182.261719 C 342.871094 180.6875 339.8125 188.339844 340.535156 208.828125 C 340.789062 216.140625 345.335938 237.605469 355.960938 251.460938 C 363.699219 261.535156 374.410156 264.003906 386.949219 265.53125 C 397.234375 266.765625 414.492188 266.808594 420.355469 256.394531 C 420.441406 256.265625 420.484375 256.179688 420.527344 256.054688 C 423.542969 251.675781 422.523438 224.769531 421.929688 213.121094 Z M 394.683594 242.832031 C 391.113281 243.046875 387.585938 242.238281 384.226562 241.046875 C 381.378906 240.027344 377.683594 238.839844 375.980469 236.203125 C 374.453125 233.824219 375.597656 229.019531 376.109375 226.511719 C 376.917969 222.601562 377.980469 218.09375 382.570312 217.5 C 388.777344 216.691406 401.699219 214.992188 403.992188 223.152344 C 405.097656 227.105469 406.585938 230.847656 405.820312 235.011719 C 404.800781 240.285156 399.65625 242.492188 394.683594 242.832031 Z M 394.683594 242.832031 " fill-opacity="1" fill-rule="nonzero"/><path fill="#380d0d" d="M 342.488281 184.769531 C 341.214844 186.9375 340.535156 189.273438 340.40625 191.742188 C 340.320312 193.398438 342.914062 193.398438 343 191.742188 C 343.125 189.699219 343.722656 187.828125 344.742188 186.042969 C 345.589844 184.640625 343.339844 183.324219 342.488281 184.769531 Z M 342.488281 184.769531 " fill-opacity="1" fill-rule="nonzero"/><path fill="#749cf7" d="M 513.695312 325.976562 C 509.148438 319.898438 503.070312 314.542969 495.375 309.824219 C 471.785156 295.414062 443.523438 289.125 417.253906 281.429688 C 415.765625 281.003906 413.597656 281.558594 412.535156 282.707031 C 404.757812 291.503906 387.585938 292.738281 376.789062 293.503906 C 360.9375 294.648438 345.25 293.417969 330.585938 286.699219 C 328.207031 285.597656 325.105469 283.089844 322.554688 282.707031 C 320.214844 282.324219 317.792969 283.726562 315.539062 284.492188 C 309.71875 286.445312 303.9375 288.402344 298.113281 290.355469 C 286.511719 294.265625 274.90625 298.261719 263.429688 302.640625 C 244.984375 309.695312 226.195312 320.367188 215.953125 337.921875 C 202.988281 360.238281 215.230469 387.230469 224.496094 409.164062 C 228.40625 452.605469 225.898438 491.625 231.722656 534.855469 C 240.816406 602.613281 250.933594 642.101562 252.039062 641.972656 C 264.492188 647.839844 418.144531 652.34375 468.769531 607.925781 C 471.191406 605.800781 489 587.863281 491.507812 585.824219 C 494.398438 583.527344 495.84375 580.296875 496.695312 576.769531 C 498.691406 568.777344 500.050781 560.53125 501.625 552.410156 C 507.957031 519.425781 513.058594 486.1875 516.925781 452.816406 C 520.667969 420.597656 523.429688 395.304688 524.152344 362.875 C 524.535156 348.164062 521.175781 336.050781 513.695312 325.976562 Z M 513.695312 325.976562 " fill-opacity="1" fill-rule="nonzero"/><path fill="#ffffff" d="M 236.78125 410.140625 C 260.242188 405.125 320.515625 393.4375 343.679688 388.972656 C 348.820312 387.996094 353.792969 391.3125 354.859375 396.410156 L 390.09375 565.417969 C 391.15625 570.476562 388.011719 575.449219 382.996094 576.683594 L 276.734375 602.738281 C 271.464844 604.015625 266.195312 600.699219 265.089844 595.386719 L 229.382812 421.449219 C 228.363281 416.261719 231.636719 411.246094 236.78125 410.140625 Z M 236.78125 410.140625 " fill-opacity="1" fill-rule="nonzero"/><path fill="#ffe1c9" d="M 330.671875 557.894531 C 329.949219 548.796875 328.164062 539.828125 326.082031 530.945312 C 324.167969 522.742188 322.257812 514.539062 317.75 507.3125 C 315.117188 503.0625 309.675781 494.476562 303.683594 498.34375 C 303.34375 498.554688 303.214844 498.894531 303.257812 499.234375 C 297.605469 514.027344 297.816406 530.476562 302.875 545.398438 C 305.253906 552.453125 308.65625 559.128906 312.820312 565.332031 C 315.753906 569.667969 319.707031 576.851562 325.65625 576.8125 C 325.828125 577.152344 326.210938 577.363281 326.675781 577.234375 C 329.226562 576.472656 330.375 574.472656 330.757812 571.921875 C 331.4375 567.375 331.011719 562.445312 330.671875 557.894531 Z M 330.671875 557.894531 " fill-opacity="1" fill-rule="nonzero"/><path fill="#380d0d" d="M 366.25 576.472656 C 365.652344 576.472656 365.144531 576.089844 364.972656 575.492188 L 322.851562 403.425781 C 322.851562 403.382812 322.851562 403.382812 322.851562 403.339844 C 322.257812 400.152344 324.125 396.964844 327.273438 395.984375 C 327.316406 395.984375 327.355469 395.945312 327.398438 395.945312 L 350.351562 391.140625 C 351.074219 390.96875 351.753906 391.4375 351.882812 392.160156 C 352.007812 392.882812 351.585938 393.5625 350.863281 393.691406 L 327.996094 398.496094 C 326.167969 399.089844 325.0625 400.917969 325.402344 402.828125 L 367.523438 574.855469 C 367.695312 575.535156 367.269531 576.257812 366.589844 576.429688 C 366.417969 576.429688 366.332031 576.472656 366.25 576.472656 Z M 366.25 576.472656 " fill-opacity="1" fill-rule="nonzero"/><path fill="#ff8f66" d="M 380.699219 472.457031 C 380.699219 472.414062 380.699219 472.414062 380.742188 472.371094 C 383.082031 466.121094 383.292969 457.917969 378.871094 452.476562 C 377.085938 450.269531 374.367188 448.949219 371.730469 448.863281 C 371.222656 448.863281 370.839844 448.398438 370.882812 447.929688 C 371.730469 441.511719 371.308594 430.585938 362.679688 431.183594 C 358.46875 431.480469 355.664062 435.136719 354.21875 438.75 C 352.390625 443.210938 350.988281 447.25 347.714844 450.90625 C 344.953125 454.007812 341.808594 456.601562 338.535156 459.109375 C 337.726562 459.703125 336.75 458.726562 337.34375 457.917969 C 338.027344 457.027344 338.664062 456.046875 339.257812 455.070312 C 342.703125 449.078125 345.847656 437.941406 339.171875 432.796875 C 336.367188 430.628906 332.671875 431.691406 330.460938 434.15625 C 327.613281 437.304688 326.804688 442.234375 324.636719 445.847656 C 319.664062 454.179688 311.035156 459.152344 307.933594 468.714844 C 305 477.855469 306.53125 487.460938 308.699219 496.644531 C 309.039062 498.128906 308.273438 499.660156 306.871094 500.214844 C 299.730469 503.0625 292.417969 505.652344 285.066406 507.90625 C 284.894531 507.949219 284.726562 507.949219 284.511719 507.90625 C 283.152344 507.523438 281.238281 508.714844 281.539062 510.628906 C 282.726562 518.617188 292.035156 563.546875 294.542969 562.867188 C 316.859375 556.875 372.410156 526.183594 378.53125 517.9375 C 383.632812 511.050781 385.714844 502.042969 382.742188 494.007812 C 382.65625 493.792969 382.65625 493.539062 382.78125 493.328125 C 386.140625 486.570312 386.480469 477.898438 380.699219 472.457031 Z M 380.699219 472.457031 " fill-opacity="1" fill-rule="nonzero"/><path fill="#749cf7" d="M 255.523438 489.542969 C 261.816406 466.761719 268.105469 443.976562 274.398438 421.148438 C 280.390625 399.472656 288.039062 377.453125 290.082031 354.925781 C 291.144531 343.191406 290.335938 330.824219 285.789062 319.8125 C 282.175781 311.015625 277.160156 297.667969 275.84375 298.007812 C 262.027344 301.578125 237.035156 313.609375 226.917969 322.789062 C 216.039062 332.609375 208.34375 344.765625 202.734375 358.28125 C 196.105469 374.265625 190.535156 390.714844 184.542969 406.910156 C 178.507812 423.234375 172.386719 439.511719 166.945312 456.046875 C 161.632812 472.285156 157.085938 488.738281 153.34375 505.398438 C 149.730469 521.464844 144.929688 541.359375 144.121094 557.851562 C 142.804688 585.015625 149.265625 620.59375 179.867188 629.902344 C 196.019531 634.789062 223.816406 625.90625 225.304688 622.886719 C 228.660156 600.699219 232.828125 578.597656 237.886719 556.746094 C 243.113281 534.21875 249.363281 511.902344 255.523438 489.542969 Z M 255.523438 489.542969 " fill-opacity="1" fill-rule="nonzero"/><path fill="#ffe1c9" d="M 327.824219 574.429688 C 316.945312 567.800781 311.96875 555.769531 308.953125 544.121094 C 305.253906 529.796875 302.449219 514.242188 306.273438 499.746094 C 306.53125 498.726562 305.679688 497.746094 304.574219 498.171875 C 300.621094 499.703125 296.667969 501.234375 292.757812 502.765625 C 292.546875 502.765625 292.332031 502.847656 292.121094 502.976562 C 292.078125 503.019531 292.035156 503.019531 291.992188 503.0625 C 291.867188 503.105469 291.738281 503.144531 291.609375 503.230469 C 291.1875 503.402344 290.972656 503.65625 290.886719 503.996094 C 286.976562 507.90625 287.53125 515.726562 287.234375 520.574219 C 286.765625 528.226562 286.851562 535.917969 287.445312 543.570312 C 288.636719 558.617188 291.949219 573.453125 297.179688 587.691406 C 297.136719 587.691406 297.09375 587.734375 297.050781 587.734375 C 295.519531 588.246094 296.542969 590.5 298.070312 589.988281 C 298.15625 589.945312 298.285156 589.902344 298.371094 589.902344 C 298.878906 590.074219 299.558594 589.859375 299.898438 589.351562 C 309.503906 585.949219 318.769531 581.699219 327.527344 576.554688 C 328.335938 576.128906 328.761719 574.984375 327.824219 574.429688 Z M 327.824219 574.429688 " fill-opacity="1" fill-rule="nonzero"/><path fill="#ffe1c9" d="M 548.507812 85.34375 C 538.730469 83.136719 528.574219 82.921875 518.585938 84.070312 C 508.808594 85.21875 498.691406 87.429688 489.511719 91.890625 C 479.90625 96.609375 471.914062 104.941406 467.410156 115.949219 C 463.371094 125.8125 462.648438 136.949219 464.945312 147.191406 C 465.15625 148.214844 465.070312 149.277344 464.6875 150.253906 C 463.160156 154.164062 459.460938 164.070312 460.777344 163.304688 C 465.878906 160.414062 470.980469 157.648438 476.207031 155.058594 C 478.546875 155.097656 480.925781 154.929688 483.21875 154.84375 C 501.667969 154.335938 520.070312 155.863281 538.519531 154.207031 C 553.992188 152.804688 569.632812 146.8125 579.535156 131.636719 C 597.300781 104.472656 566.359375 89.425781 548.507812 85.34375 Z M 548.507812 85.34375 " fill-opacity="1" fill-rule="nonzero"/><path fill="#ffe1c9" d="M 605.546875 162.070312 C 594.753906 159.773438 583.574219 159.476562 572.566406 160.582031 C 561.8125 161.644531 550.675781 163.769531 540.644531 168.191406 C 530.144531 172.824219 521.476562 181.113281 516.628906 192.082031 C 513.527344 199.136719 503.367188 208.699219 497.882812 213.503906 C 496.738281 214.523438 497.417969 216.480469 498.90625 216.4375 C 506.851562 216.265625 522.539062 216.140625 524.109375 218.351562 C 531.207031 228.296875 543.703125 231.570312 554.882812 232.800781 C 574.519531 235.011719 599.425781 233.695312 617.28125 223.621094 C 628.839844 217.117188 640.273438 203.386719 637.085938 188.679688 C 633.855469 173.929688 618.640625 164.875 605.546875 162.070312 Z M 605.546875 162.070312 " fill-opacity="1" fill-rule="nonzero"/><path fill="#749cf7" d="M 314.4375 587.140625 C 305.210938 574.601562 298.328125 560.488281 294.203125 545.441406 C 292.207031 538.042969 290.804688 530.476562 290.207031 522.828125 C 289.742188 517.003906 289.101562 505.3125 294.796875 501.402344 C 296.925781 499.957031 294.332031 498.214844 292.207031 498.894531 C 291.738281 498.429688 147.4375 535.835938 145.949219 542.210938 C 141.78125 559.9375 145.777344 582.933594 147.945312 594.367188 C 149.945312 604.90625 155.511719 614.769531 163.546875 621.867188 C 181.441406 637.597656 206.21875 635.214844 227.683594 629.730469 C 241.882812 626.117188 255.695312 620.976562 269.042969 614.941406 C 284.386719 608.054688 314.859375 589.902344 314.648438 589.054688 C 314.945312 588.542969 314.945312 587.863281 314.4375 587.140625 Z M 314.4375 587.140625 " fill-opacity="1" fill-rule="nonzero"/><path fill="#380d0d" d="M 234.441406 345.699219 C 239.117188 346.976562 243.878906 348.25 248.085938 350.714844 C 252.378906 353.222656 255.609375 357.050781 258.5 361.046875 C 264.324219 368.996094 269.042969 377.75 272.355469 387.015625 C 274.226562 392.203125 275.671875 397.515625 276.691406 402.914062 C 276.988281 404.574219 279.496094 403.851562 279.199219 402.234375 C 277.285156 392.160156 273.886719 382.382812 269.167969 373.246094 C 266.789062 368.695312 264.109375 364.320312 261.09375 360.195312 C 258.203125 356.242188 255.101562 352.332031 251.019531 349.527344 C 246.257812 346.253906 240.605469 344.722656 235.121094 343.234375 C 233.550781 342.769531 232.828125 345.277344 234.441406 345.699219 Z M 234.441406 345.699219 " fill-opacity="1" fill-rule="nonzero"/><path fill="#380d0d" d="M 248.597656 506.886719 C 226.410156 512.921875 204.730469 520.785156 183.820312 530.351562 C 182.289062 531.03125 183.605469 533.285156 185.136719 532.605469 C 205.835938 523.125 227.34375 515.386719 249.320312 509.394531 C 250.890625 508.96875 250.210938 506.460938 248.597656 506.886719 Z M 248.597656 506.886719 " fill-opacity="1" fill-rule="nonzero"/><path fill="#380d0d" d="M 303.554688 595.980469 C 286.679688 605.503906 269 613.578125 250.722656 620.082031 C 249.148438 620.636719 249.828125 623.144531 251.402344 622.589844 C 269.890625 616.003906 287.785156 607.839844 304.828125 598.191406 C 306.316406 597.425781 305 595.171875 303.554688 595.980469 Z M 303.554688 595.980469 " fill-opacity="1" fill-rule="nonzero"/><path fill="#ffe1c9" d="M 298.371094 155.949219 C 295.265625 153.65625 292.375 151.0625 289.699219 148.257812 C 288.890625 147.40625 288.804688 146.128906 289.402344 145.109375 C 292.164062 140.691406 293.820312 135.417969 294.246094 129.808594 C 294.585938 125.132812 293.992188 120.753906 292.671875 116.714844 C 289.570312 107.195312 282.34375 99.5 273.375 94.484375 C 255.523438 84.582031 233.71875 81.050781 213.957031 86.449219 C 204.945312 88.917969 196.484375 94.058594 190.75 101.667969 C 184.457031 110.042969 182.503906 120.582031 183.820312 130.957031 C 184.753906 138.523438 188.113281 145.066406 194.019531 149.742188 C 198.144531 152.972656 202.945312 155.183594 207.835938 156.925781 C 224.367188 162.878906 242.476562 164.492188 259.734375 161.179688 C 265.300781 160.117188 270.742188 158.5 275.96875 156.417969 C 276.394531 156.246094 276.777344 156.078125 277.160156 155.90625 C 277.628906 155.695312 278.136719 155.609375 278.648438 155.738281 C 280.898438 156.203125 283.152344 156.671875 285.40625 157.097656 C 288.210938 157.648438 291.058594 158.117188 293.90625 158.585938 C 295.480469 158.839844 296.925781 159.222656 298.328125 158.160156 C 299.089844 157.566406 299.175781 156.542969 298.371094 155.949219 Z M 298.371094 155.949219 " fill-opacity="1" fill-rule="nonzero"/><path fill="#ffe1c9" d="M 310.355469 223.535156 C 306.828125 224.429688 303.382812 225.492188 299.984375 226.808594 C 298.75 227.277344 297.347656 226.554688 297.007812 225.277344 C 296.796875 224.472656 296.542969 223.664062 296.242188 222.855469 C 289.359375 203.855469 267.128906 199.6875 249.363281 201.09375 C 230.277344 202.621094 206.816406 211.890625 195.59375 228.339844 C 189.261719 237.605469 189.386719 250.78125 193.679688 260.8125 C 201.628906 279.304688 220.5 284.320312 239.03125 281.21875 C 250 279.390625 261.261719 275.945312 271.207031 270.929688 C 282.644531 265.148438 293.183594 254.734375 296.796875 242.492188 C 296.925781 242.027344 297.179688 241.644531 297.5625 241.347656 C 303.382812 236.710938 308.65625 231.316406 311.546875 224.726562 C 311.800781 224.003906 310.992188 223.367188 310.355469 223.535156 Z M 310.355469 223.535156 " fill-opacity="1" fill-rule="nonzero"/><path fill="#380d0d" d="M 313.289062 558.109375 C 315.582031 564.1875 320.175781 569.203125 326.125 571.878906 C 327.65625 572.558594 328.972656 570.308594 327.441406 569.628906 C 322.128906 567.246094 317.878906 562.910156 315.796875 557.425781 C 315.199219 555.898438 312.691406 556.535156 313.289062 558.109375 Z M 313.289062 558.109375 " fill-opacity="1" fill-rule="nonzero"/><path fill="#ff8f66" d="M 698.503906 305.828125 C 697.824219 305.0625 697.058594 304.511719 696.253906 304.085938 C 694.976562 303.449219 694.339844 302.046875 694.636719 300.6875 C 695.65625 295.796875 696.933594 289.421875 694.679688 284.574219 C 692.765625 280.453125 687.75 278.710938 682.863281 279.6875 C 682.566406 279.730469 682.226562 279.816406 681.929688 279.898438 C 680.609375 280.28125 679.207031 279.773438 678.484375 278.625 C 677.890625 277.648438 677.039062 276.796875 675.851562 276.074219 C 669.941406 272.589844 663.949219 276.925781 661.484375 281.261719 C 654.8125 293.035156 650.390625 305.53125 640.953125 316.03125 C 636.40625 321.089844 630.753906 325.59375 624.078125 328.65625 C 622.761719 329.25 619.066406 330.609375 615.070312 331.546875 C 611.160156 332.480469 607.503906 329.25 608.734375 326.019531 C 609.035156 325.210938 609.417969 324.445312 609.882812 323.722656 C 612.476562 319.601562 617.449219 317.007812 621.828125 314.332031 C 625.949219 311.863281 630.242188 309.101562 632.835938 305.320312 C 635.214844 301.789062 635.300781 296.691406 630.242188 294.648438 C 625.015625 292.523438 619.234375 295.710938 614.855469 297.753906 C 609.246094 300.386719 603.761719 303.234375 598.492188 306.296875 C 592.925781 309.527344 587.144531 312.800781 583.277344 317.5625 C 580.046875 321.515625 578.261719 326.191406 577.367188 330.949219 C 574.988281 343.234375 577.582031 356.539062 578.726562 368.953125 C 578.769531 369.378906 578.726562 369.800781 578.601562 370.183594 C 575.539062 379.664062 572.183594 389.015625 568.570312 398.324219 C 568.441406 398.621094 567.589844 400.152344 567.632812 400.789062 C 567.632812 400.789062 625.226562 417.453125 625.398438 417.113281 C 629.605469 408.269531 638.0625 389.226562 641.675781 380.214844 C 642.015625 379.410156 642.695312 378.730469 643.503906 378.429688 C 650.09375 376.136719 657.019531 374.5625 663.054688 371.078125 C 674.191406 364.703125 681.886719 357.136719 684.480469 353.394531 C 689.707031 345.785156 694.636719 337.070312 695.953125 328.1875 C 696.082031 327.335938 696.082031 326.488281 695.953125 325.59375 C 695.871094 324.914062 695.953125 324.191406 696.296875 323.554688 C 697.230469 321.898438 698.121094 320.28125 698.929688 318.625 C 700.96875 314.671875 702.03125 309.65625 698.503906 305.828125 Z M 698.503906 305.828125 " fill-opacity="1" fill-rule="nonzero"/><path fill="#d15a2e" d="M 694.722656 324.320312 C 693.871094 321.8125 691.660156 320.324219 689.070312 320.027344 C 686.09375 319.6875 683.417969 321.089844 681.332031 323.128906 C 679.039062 325.425781 677.378906 328.398438 675.554688 331.121094 C 673.640625 334.011719 671.683594 336.859375 669.390625 339.496094 C 664.5 345.148438 658.550781 348.632812 651.242188 350.207031 C 644.140625 351.695312 636.832031 351.3125 629.691406 352.671875 C 621.742188 354.203125 618.003906 360.621094 614.941406 367.464844 C 614.261719 368.996094 616.515625 370.3125 617.195312 368.78125 C 619.617188 363.339844 622.464844 357.304688 628.671875 355.5625 C 631.984375 354.628906 635.554688 354.585938 639 354.328125 C 642.230469 354.074219 645.460938 353.820312 648.691406 353.308594 C 654.980469 352.332031 661.015625 350.375 666.03125 346.378906 C 670.878906 342.511719 674.492188 337.371094 677.890625 332.226562 C 679.761719 329.378906 681.546875 325.976562 684.351562 323.894531 C 686.5625 322.277344 691.023438 321.726562 692.128906 325 C 692.765625 326.613281 695.273438 325.933594 694.722656 324.320312 Z M 694.722656 324.320312 " fill-opacity="1" fill-rule="nonzero"/><path fill="#d15a2e" d="M 692.808594 302.769531 C 682.949219 301.789062 678.742188 312.375 674.957031 319.390625 C 670.578125 327.59375 664.460938 334.734375 657.148438 340.472656 C 655.832031 341.492188 657.699219 343.320312 658.976562 342.300781 C 665.734375 336.988281 671.472656 330.484375 675.851562 323.085938 C 679.675781 316.582031 683.160156 304.382812 692.808594 305.363281 C 694.46875 305.53125 694.46875 302.9375 692.808594 302.769531 Z M 692.808594 302.769531 " fill-opacity="1" fill-rule="nonzero"/><path fill="#d15a2e" d="M 678.742188 282.449219 C 675.253906 286.320312 673.046875 290.953125 671.003906 295.671875 C 669.007812 300.347656 666.96875 304.980469 664.289062 309.355469 C 658.890625 318.113281 651.621094 325.679688 643.121094 331.417969 C 641.71875 332.351562 643.035156 334.605469 644.441406 333.671875 C 652.898438 327.976562 660.167969 320.621094 665.691406 312.035156 C 668.496094 307.65625 670.707031 303.023438 672.703125 298.261719 C 674.789062 293.332031 676.957031 288.316406 680.566406 284.320312 C 681.714844 283.046875 679.847656 281.175781 678.742188 282.449219 Z M 678.742188 282.449219 " fill-opacity="1" fill-rule="nonzero"/><path fill="#d15a2e" d="M 368.332031 450.054688 C 366.84375 461.574219 356.855469 469.097656 347.929688 475.132812 C 346.570312 476.070312 347.84375 478.320312 349.246094 477.386719 C 359.066406 470.714844 369.308594 462.636719 370.925781 450.054688 C 371.179688 448.398438 368.542969 448.441406 368.332031 450.054688 Z M 368.332031 450.054688 " fill-opacity="1" fill-rule="nonzero"/><path fill="#d15a2e" d="M 378.105469 473.902344 C 374.664062 482.617188 366.84375 489.203125 357.707031 491.285156 C 356.089844 491.667969 356.769531 494.175781 358.386719 493.792969 C 368.457031 491.5 376.789062 484.144531 380.574219 474.582031 C 381.210938 473.007812 378.703125 472.328125 378.105469 473.902344 Z M 378.105469 473.902344 " fill-opacity="1" fill-rule="nonzero"/><path fill="#d15a2e" d="M 379.808594 493.539062 C 377.085938 500.722656 371.773438 506.632812 365.015625 510.246094 C 363.527344 511.050781 364.847656 513.261719 366.332031 512.496094 C 373.730469 508.585938 379.382812 502.042969 382.316406 494.261719 C 382.910156 492.648438 380.402344 491.96875 379.808594 493.539062 Z M 379.808594 493.539062 " fill-opacity="1" fill-rule="nonzero"/><path fill="#ffe1c9" d="M 641.082031 407.761719 C 630.117188 415.410156 614.429688 412.5625 602.359375 409.207031 C 589.695312 405.679688 574.351562 395.605469 574.011719 380.554688 C 573.96875 378.769531 572.308594 380.640625 571.246094 381.492188 C 570.523438 381.535156 562.449219 403.511719 559.558594 414.050781 C 559.132812 414.347656 558.878906 414.816406 558.921875 415.496094 C 559.558594 431.222656 579.578125 437.898438 592.5 439.300781 C 600.746094 440.195312 620.59375 452.4375 624.71875 446.355469 C 625.058594 445.847656 635.894531 427.230469 635.8125 426.804688 C 638.105469 420.980469 641.933594 415.582031 642.738281 409.375 C 643.292969 405.167969 641.507812 407.421875 641.082031 407.761719 Z M 641.082031 407.761719 " fill-opacity="1" fill-rule="nonzero"/><path fill="#749cf7" d="M 645.714844 431.183594 C 632.835938 441.808594 607.503906 438.152344 592.839844 433.648438 C 578.558594 429.269531 565.167969 414.265625 564.617188 398.367188 C 564.574219 397.472656 561.769531 396.625 561.257812 399.386719 C 561.214844 399.515625 516.117188 470.246094 498.734375 507.820312 C 494.527344 516.917969 489.511719 526.566406 489.339844 536.8125 C 488.875 537.28125 488.617188 537.960938 488.789062 538.808594 C 492.316406 555.429688 496.441406 573.453125 509.957031 585.015625 C 522.917969 596.109375 541.410156 597.128906 554.796875 587.226562 C 610.777344 545.949219 636.875 456.007812 645.585938 434.753906 C 646.097656 433.519531 646.734375 430.375 645.714844 431.183594 Z M 645.714844 431.183594 " fill-opacity="1" fill-rule="nonzero"/><path fill="#380d0d" d="M 521.515625 365.464844 C 519.265625 375.15625 513.695312 383.660156 511.445312 393.308594 C 509.488281 401.640625 510.933594 410.355469 510.636719 418.769531 C 510.296875 427.269531 509.785156 435.773438 509.191406 444.273438 C 508.253906 457.875 507.109375 471.4375 505.746094 484.953125 C 504.21875 500.253906 502.390625 515.558594 500.011719 530.777344 C 497.84375 544.632812 495.335938 558.492188 491.636719 572.050781 C 491.253906 573.496094 490.828125 574.941406 490.402344 576.386719 C 489.9375 578 492.445312 578.679688 492.910156 577.066406 C 496.820312 564.015625 499.414062 550.542969 501.625 537.109375 C 504.132812 521.976562 506.046875 506.757812 507.660156 491.5 C 509.148438 477.515625 510.382812 463.488281 511.402344 449.417969 C 512.082031 440.023438 512.675781 430.585938 513.101562 421.148438 C 513.398438 414.476562 512.847656 407.804688 513.058594 401.128906 C 513.398438 391.054688 518.328125 382.46875 521.773438 373.246094 C 522.621094 370.90625 523.386719 368.570312 523.941406 366.144531 C 524.40625 364.53125 521.898438 363.808594 521.515625 365.464844 Z M 521.515625 365.464844 " fill-opacity="1" fill-rule="nonzero"/><path fill="#ffe1c9" d="M 563.042969 280.324219 C 550.039062 262.34375 521.941406 257.371094 500.011719 254.183594 C 489.9375 252.738281 467.070312 252.058594 458.441406 251.886719 C 456.996094 251.84375 456.058594 253.289062 456.78125 254.4375 C 458.78125 257.710938 461.246094 262.34375 462.734375 264.425781 C 462.820312 264.554688 458.949219 271.226562 458.695312 272.078125 C 457.632812 275.140625 457.207031 278.371094 457.25 281.558594 C 457.292969 287.679688 459.546875 292.78125 461.542969 298.433594 C 465.667969 309.996094 472.679688 320.152344 483.5625 327.296875 C 503.621094 340.472656 529.421875 339.070312 550.589844 329.039062 C 565.890625 321.8125 573.203125 305.660156 568.273438 290.441406 C 566.996094 286.699219 565.210938 283.34375 563.042969 280.324219 Z M 563.042969 280.324219 " fill-opacity="1" fill-rule="nonzero"/><path fill="#380d0d" d="M 547.148438 421.617188 C 540.558594 432.414062 534.183594 443.296875 528.0625 454.347656 C 527.253906 455.835938 529.507812 457.109375 530.316406 455.667969 C 536.480469 444.613281 542.8125 433.734375 549.398438 422.9375 C 550.292969 421.492188 548.039062 420.171875 547.148438 421.617188 Z M 547.148438 421.617188 " fill-opacity="1" fill-rule="nonzero"/><path fill="#ffffff" d="M 254.757812 108.511719 C 252.167969 104.898438 248.214844 102.179688 243.242188 100.988281 C 214.890625 94.230469 204.136719 134.101562 229.980469 141.414062 C 243.242188 145.152344 256.628906 134.824219 258.117188 122.199219 C 258.710938 117.097656 257.480469 112.296875 254.757812 108.511719 Z M 254.757812 108.511719 " fill-opacity="1" fill-rule="nonzero"/><path fill="#e63e37" d="M 254.757812 108.511719 C 252.167969 104.898438 248.214844 102.179688 243.242188 100.988281 C 243.15625 100.945312 243.027344 100.945312 242.945312 100.902344 L 242.945312 140.816406 C 250.890625 137.882812 257.140625 130.53125 258.117188 122.15625 C 258.710938 117.097656 257.480469 112.296875 254.757812 108.511719 Z M 254.757812 108.511719 " fill-opacity="1" fill-rule="nonzero"/><path fill="#43669e" d="M 230.066406 101.285156 C 212.253906 107.195312 208.640625 135.332031 229.980469 141.371094 C 230.023438 141.371094 230.066406 141.371094 230.066406 141.414062 Z M 230.066406 101.285156 " fill-opacity="1" fill-rule="nonzero"/><path fill="#ffffff" d="M 591.863281 182.304688 C 589.269531 178.691406 585.316406 175.96875 580.34375 174.78125 C 551.992188 168.023438 541.238281 207.894531 567.082031 215.203125 C 580.34375 218.945312 593.730469 208.617188 595.21875 195.992188 C 595.773438 190.890625 594.539062 186.085938 591.863281 182.304688 Z M 591.863281 182.304688 " fill-opacity="1" fill-rule="nonzero"/><path fill="#e63e37" d="M 584.082031 187.746094 C 582.597656 185.660156 580.386719 184.132812 577.539062 183.453125 C 561.429688 179.582031 555.265625 202.28125 569.972656 206.449219 C 577.539062 208.574219 585.144531 202.707031 585.996094 195.523438 C 586.335938 192.632812 585.65625 189.914062 584.082031 187.746094 Z M 584.082031 187.746094 " fill-opacity="1" fill-rule="nonzero"/><path fill="#e63e37" d="M 533.84375 281.984375 C 532.78125 282.578125 531.464844 282.535156 530.402344 281.300781 C 525.003906 275.011719 517.308594 274.078125 509.660156 276.203125 C 506.46875 277.09375 503.496094 278.328125 500.730469 280.199219 C 498.777344 281.515625 496.566406 283.511719 494.015625 283.003906 C 493.71875 282.917969 493.421875 282.832031 493.210938 282.707031 C 490.53125 287.976562 489.808594 294.140625 491.382812 299.664062 C 492.316406 301.066406 494.101562 301.066406 494.910156 302.855469 C 497.84375 309.441406 504.644531 311.058594 511.699219 311.3125 C 518.839844 311.609375 527.59375 308.125 531.675781 301.960938 C 532.144531 301.238281 532.78125 300.8125 533.460938 300.644531 C 534.609375 298.347656 535.375 295.882812 535.671875 293.332031 C 536.097656 289.292969 535.457031 285.382812 533.84375 281.984375 Z M 533.84375 281.984375 " fill-opacity="1" fill-rule="nonzero"/><path fill="#380d0d" d="M 534.90625 284.746094 C 534.269531 282.664062 533.332031 280.75 532.101562 279.007812 C 529.378906 275.179688 525.214844 272.332031 519.945312 271.058594 C 506.003906 267.742188 496.058594 275.140625 492.230469 284.746094 Z M 534.90625 284.746094 " fill-opacity="1" fill-rule="nonzero"/><path fill="#ffb726" d="M 491.382812 299.792969 C 493.167969 305.957031 497.84375 311.3125 505.960938 313.609375 C 517.605469 316.882812 529.339844 309.910156 533.84375 299.792969 Z M 491.382812 299.792969 " fill-opacity="1" fill-rule="nonzero"/><path fill="#ffb726" d="M 259.734375 224.257812 C 257.140625 220.644531 253.1875 217.925781 248.214844 216.734375 C 219.863281 209.976562 209.109375 249.847656 234.953125 257.160156 C 248.214844 260.898438 261.601562 250.570312 263.089844 237.945312 C 263.6875 232.84375 262.453125 228.082031 259.734375 224.257812 Z M 259.734375 224.257812 " fill-opacity="1" fill-rule="nonzero"/><path fill="#43669e" d="M 262.582031 240.496094 C 262.792969 239.644531 262.964844 238.796875 263.046875 237.945312 C 263.644531 232.886719 262.410156 228.082031 259.691406 224.300781 C 257.097656 220.6875 253.144531 217.96875 248.171875 216.777344 C 229.9375 212.441406 218.972656 227.359375 220.375 240.539062 L 262.582031 240.539062 Z M 262.582031 240.496094 " fill-opacity="1" fill-rule="nonzero"/><path fill="#43669e" d="M 546.851562 115.566406 C 546.808594 114.886719 546.722656 114.25 546.59375 113.613281 C 546.085938 110.46875 545.023438 107.492188 543.40625 105.238281 C 542.726562 104.304688 542.003906 103.410156 541.152344 102.601562 C 540.984375 102.433594 540.8125 102.261719 540.644531 102.136719 C 539.792969 101.328125 538.816406 100.605469 537.796875 99.925781 C 537.582031 99.796875 537.371094 99.671875 537.160156 99.542969 C 535.246094 98.394531 533.078125 97.503906 530.699219 96.949219 C 529.804688 96.738281 528.914062 96.566406 528.0625 96.441406 C 527.679688 96.398438 527.339844 96.355469 526.957031 96.3125 C 524.152344 95.972656 521.476562 96.058594 519.050781 96.523438 C 518.710938 96.609375 518.328125 96.652344 517.988281 96.738281 C 514.886719 97.460938 512.125 98.820312 509.742188 100.5625 C 509.53125 100.734375 509.320312 100.859375 509.105469 101.03125 C 508.171875 101.796875 507.277344 102.601562 506.46875 103.453125 C 506.300781 103.625 506.171875 103.792969 506.046875 103.964844 C 503.621094 106.726562 501.835938 110.042969 500.816406 113.527344 C 500.605469 114.164062 500.476562 114.84375 500.308594 115.484375 C 499.753906 118.074219 499.628906 120.753906 499.925781 123.390625 C 499.96875 123.941406 500.050781 124.496094 500.179688 125.003906 C 500.988281 129.296875 503.070312 133.292969 506.554688 136.4375 C 506.640625 136.523438 506.726562 136.609375 506.8125 136.652344 C 507.703125 137.417969 508.636719 138.140625 509.699219 138.777344 C 510.042969 138.988281 510.339844 139.160156 510.679688 139.328125 C 512.25 140.179688 513.953125 140.902344 515.863281 141.453125 C 516.5 141.625 517.183594 141.792969 517.820312 141.921875 C 518.160156 142.007812 518.542969 142.050781 518.882812 142.09375 C 521.558594 142.515625 524.238281 142.515625 526.789062 142.09375 C 527.171875 142.050781 527.511719 141.964844 527.894531 141.878906 C 531.378906 141.15625 534.609375 139.667969 537.414062 137.628906 C 537.625 137.460938 537.882812 137.289062 538.09375 137.117188 C 539.027344 136.355469 539.921875 135.546875 540.730469 134.695312 C 540.855469 134.570312 540.984375 134.398438 541.113281 134.269531 C 543.40625 131.679688 545.148438 128.617188 546.085938 125.21875 C 546.210938 124.707031 546.339844 124.15625 546.46875 123.601562 C 546.59375 123.050781 546.679688 122.539062 546.722656 121.945312 C 547.0625 119.820312 547.0625 117.695312 546.851562 115.566406 Z M 546.851562 115.566406 " fill-opacity="1" fill-rule="nonzero"/><path fill="#ffffff" d="M 541.195312 134.144531 C 541.070312 134.269531 540.941406 134.441406 540.8125 134.570312 C 540.007812 135.460938 539.113281 136.269531 538.179688 136.992188 C 537.964844 137.160156 537.710938 137.332031 537.5 137.5 C 533.25 133.125 528.828125 128.871094 524.578125 124.496094 C 524.152344 124.070312 523.726562 123.601562 523.300781 123.175781 C 522.578125 124.113281 521.816406 125.046875 521.09375 126.023438 C 517.691406 130.488281 514.332031 134.953125 510.804688 139.246094 C 510.464844 139.074219 510.125 138.863281 509.828125 138.691406 C 508.765625 138.054688 507.832031 137.375 506.9375 136.566406 C 506.851562 136.480469 506.769531 136.4375 506.683594 136.355469 C 510.679688 131.507812 514.417969 126.492188 518.285156 121.519531 C 518.796875 120.839844 519.308594 120.203125 519.859375 119.519531 C 515.140625 114.464844 510.59375 109.234375 506.171875 103.878906 C 506.300781 103.707031 506.46875 103.539062 506.597656 103.367188 C 507.40625 102.476562 508.296875 101.667969 509.234375 100.945312 C 509.445312 100.777344 509.660156 100.605469 509.871094 100.476562 C 514.121094 105.621094 518.5 110.679688 523.046875 115.566406 C 527.59375 110.085938 532.398438 104.769531 537.203125 99.5 C 537.414062 99.628906 537.625 99.753906 537.839844 99.882812 C 538.859375 100.5625 539.792969 101.285156 540.6875 102.09375 C 540.855469 102.261719 541.027344 102.390625 541.195312 102.5625 C 536.222656 108.042969 531.25 113.527344 526.53125 119.222656 C 527.085938 119.820312 527.636719 120.371094 528.191406 120.925781 C 532.441406 125.386719 536.902344 129.679688 541.195312 134.144531 Z M 541.195312 134.144531 " fill-opacity="1" fill-rule="nonzero"/><path fill="#e63e37" d="M 540.601562 134.824219 C 539.792969 135.714844 539.113281 136.269531 538.179688 137.035156 C 533.207031 132.101562 528.234375 127.128906 523.386719 122.027344 C 518.796875 127.511719 514.25 133.082031 509.785156 138.691406 C 508.722656 138.054688 508.085938 137.628906 507.234375 136.863281 C 511.824219 131.082031 516.160156 125.089844 520.921875 119.4375 C 515.992188 114.207031 511.445312 108.640625 506.851562 103.15625 C 507.660156 102.261719 508.085938 101.882812 509.019531 101.117188 C 513.527344 106.515625 518.625 112.464844 523.472656 117.609375 C 528.273438 111.953125 533.078125 105.535156 538.007812 100.011719 C 539.027344 100.691406 539.539062 101.03125 540.390625 101.839844 C 535.332031 107.492188 529.933594 112.890625 525.042969 118.714844 C 530.019531 123.855469 535.5 129.765625 540.601562 134.824219 Z M 540.601562 134.824219 " fill-opacity="1" fill-rule="nonzero"/><path fill="#ffffff" d="M 546.808594 121.816406 C 546.722656 122.371094 546.636719 122.921875 546.550781 123.472656 C 546.46875 124.027344 546.339844 124.535156 546.167969 125.089844 L 528.445312 125.046875 C 528.191406 125.046875 528.019531 125.257812 528.019531 125.472656 L 527.976562 141.792969 C 527.636719 141.878906 527.253906 141.964844 526.871094 142.007812 C 524.324219 142.433594 521.644531 142.476562 518.96875 142.007812 C 518.625 141.964844 518.246094 141.878906 517.902344 141.835938 L 517.945312 125.429688 C 517.945312 125.21875 517.734375 125.003906 517.523438 125.003906 L 500.265625 124.960938 C 500.179688 124.410156 500.09375 123.898438 500.011719 123.347656 C 499.710938 120.753906 499.839844 118.074219 500.390625 115.441406 C 500.519531 114.761719 500.691406 114.121094 500.902344 113.484375 L 517.5625 113.527344 C 517.777344 113.527344 517.988281 113.316406 517.988281 113.101562 L 518.03125 96.695312 C 518.371094 96.609375 518.753906 96.523438 519.09375 96.484375 C 521.515625 96.015625 524.152344 95.929688 527 96.269531 C 527.339844 96.3125 527.722656 96.355469 528.105469 96.398438 L 528.0625 113.144531 C 528.0625 113.359375 528.234375 113.570312 528.488281 113.570312 L 546.59375 113.613281 C 546.722656 114.25 546.808594 114.929688 546.851562 115.566406 C 547.0625 117.695312 547.0625 119.820312 546.808594 121.816406 Z M 546.808594 121.816406 " fill-opacity="1" fill-rule="nonzero"/><path fill="#e63e37" d="M 546.851562 115.566406 C 547.0625 117.695312 547.0625 119.859375 546.808594 121.816406 C 546.722656 122.371094 546.636719 122.921875 546.550781 123.472656 L 527.339844 123.433594 C 527.128906 123.433594 526.957031 123.601562 526.957031 123.8125 L 526.914062 142.007812 C 524.363281 142.433594 521.6875 142.476562 519.007812 142.007812 L 519.050781 123.773438 C 519.050781 123.558594 518.882812 123.390625 518.625 123.390625 L 500.050781 123.347656 C 499.753906 120.753906 499.882812 118.074219 500.433594 115.441406 L 518.667969 115.484375 C 518.882812 115.484375 519.09375 115.3125 519.09375 115.101562 L 519.136719 96.441406 C 521.558594 95.972656 524.195312 95.886719 527.042969 96.226562 L 527 115.101562 C 527 115.3125 527.171875 115.484375 527.382812 115.484375 Z M 546.851562 115.566406 " fill-opacity="1" fill-rule="nonzero"/><g fill="#ffffff" fill-opacity="1"><g transform="translate(42.313434, 767.099981)"><g><path d="M 2.234375 -2.71875 C 2.234375 -3.789062 2.515625 -4.597656 3.078125 -5.140625 C 3.648438 -5.679688 4.484375 -5.953125 5.578125 -5.953125 C 6.628906 -5.953125 7.441406 -5.671875 8.015625 -5.109375 C 8.597656 -4.554688 8.890625 -3.757812 8.890625 -2.71875 C 8.890625 -1.71875 8.597656 -0.925781 8.015625 -0.34375 C 7.429688 0.226562 6.617188 0.515625 5.578125 0.515625 C 4.515625 0.515625 3.691406 0.234375 3.109375 -0.328125 C 2.523438 -0.898438 2.234375 -1.695312 2.234375 -2.71875 Z M 2.234375 -2.71875 "/></g></g></g></svg>