<svg xmlns="http://www.w3.org/2000/svg" xmlns:xlink="http://www.w3.org/1999/xlink" width="1080" zoomAndPan="magnify" viewBox="0 0 810 809.999993" height="1080" preserveAspectRatio="xMidYMid meet" version="1.0"><defs><g/><clipPath id="1cc37b77dc"><path d="M 611.304688 354.566406 L 742.554688 354.566406 L 742.554688 455 L 611.304688 455 Z M 611.304688 354.566406 " clip-rule="nonzero"/></clipPath></defs><g clip-path="url(#1cc37b77dc)"><path fill="#000000" d="M 725.785156 354.550781 L 682.109375 354.550781 C 681.574219 354.550781 681.039062 354.578125 680.503906 354.628906 C 679.972656 354.679688 679.441406 354.757812 678.917969 354.863281 C 678.390625 354.964844 677.875 355.09375 677.359375 355.246094 C 676.847656 355.402344 676.34375 355.582031 675.847656 355.785156 C 675.351562 355.988281 674.871094 356.214844 674.398438 356.464844 C 673.925781 356.714844 673.464844 356.988281 673.019531 357.285156 C 672.574219 357.582031 672.144531 357.898438 671.730469 358.234375 C 671.316406 358.570312 670.917969 358.929688 670.539062 359.304688 C 670.160156 359.683594 669.800781 360.074219 669.460938 360.488281 C 669.121094 360.898438 668.800781 361.324219 668.503906 361.769531 C 668.203125 362.210938 667.929688 362.667969 667.675781 363.136719 C 667.421875 363.605469 667.195312 364.085938 666.988281 364.578125 C 666.78125 365.070312 666.601562 365.570312 666.445312 366.082031 C 666.289062 366.589844 666.160156 367.105469 666.054688 367.628906 C 665.949219 368.152344 665.871094 368.679688 665.816406 369.207031 C 665.765625 369.738281 665.738281 370.269531 665.738281 370.800781 L 665.738281 379.789062 L 628.21875 379.789062 C 627.683594 379.789062 627.148438 379.816406 626.617188 379.867188 C 626.082031 379.921875 625.554688 380 625.027344 380.105469 C 624.503906 380.207031 623.984375 380.339844 623.46875 380.492188 C 622.957031 380.648438 622.453125 380.828125 621.957031 381.03125 C 621.464844 381.238281 620.980469 381.464844 620.507812 381.714844 C 620.035156 381.96875 619.578125 382.242188 619.132812 382.539062 C 618.6875 382.835938 618.257812 383.152344 617.84375 383.488281 C 617.429688 383.828125 617.03125 384.1875 616.652344 384.5625 C 616.273438 384.941406 615.914062 385.335938 615.574219 385.746094 C 615.234375 386.160156 614.917969 386.585938 614.617188 387.03125 C 614.320312 387.472656 614.046875 387.929688 613.792969 388.398438 C 613.542969 388.871094 613.3125 389.351562 613.109375 389.84375 C 612.902344 390.335938 612.722656 390.835938 612.566406 391.347656 C 612.410156 391.855469 612.28125 392.371094 612.175781 392.894531 C 612.074219 393.417969 611.992188 393.945312 611.941406 394.476562 C 611.890625 395.003906 611.863281 395.535156 611.863281 396.070312 L 611.863281 420.753906 C 611.863281 421.726562 611.953125 422.691406 612.128906 423.648438 C 612.304688 424.605469 612.5625 425.539062 612.90625 426.449219 C 613.25 427.359375 613.671875 428.234375 614.171875 429.070312 C 614.671875 429.902344 615.246094 430.6875 615.886719 431.421875 C 616.53125 432.15625 617.230469 432.828125 617.996094 433.433594 C 618.757812 434.042969 619.570312 434.578125 620.429688 435.042969 C 621.289062 435.507812 622.183594 435.890625 623.113281 436.195312 C 624.042969 436.5 624.992188 436.71875 625.960938 436.855469 L 625.960938 452.699219 C 625.960938 453.109375 626.070312 453.488281 626.277344 453.835938 C 626.488281 454.1875 626.773438 454.460938 627.132812 454.65625 C 627.492188 454.851562 627.878906 454.945312 628.289062 454.933594 C 628.699219 454.921875 629.078125 454.804688 629.425781 454.585938 L 657.421875 437.003906 L 672.003906 437.003906 C 672.535156 437 673.070312 436.972656 673.597656 436.917969 C 674.128906 436.863281 674.65625 436.785156 675.179688 436.679688 C 675.703125 436.574219 676.21875 436.441406 676.730469 436.285156 C 677.238281 436.128906 677.742188 435.949219 678.234375 435.746094 C 678.726562 435.539062 679.207031 435.3125 679.675781 435.0625 C 680.144531 434.808594 680.601562 434.535156 681.046875 434.238281 C 681.488281 433.941406 681.914062 433.625 682.328125 433.289062 C 682.738281 432.949219 683.132812 432.59375 683.507812 432.21875 C 683.886719 431.839844 684.242188 431.449219 684.582031 431.039062 C 684.917969 430.625 685.234375 430.199219 685.53125 429.757812 C 685.828125 429.316406 686.101562 428.863281 686.351562 428.394531 C 686.601562 427.925781 686.828125 427.445312 687.03125 426.953125 C 687.234375 426.464844 687.414062 425.964844 687.570312 425.457031 C 687.722656 424.949219 687.851562 424.433594 687.957031 423.914062 C 688.0625 423.394531 688.140625 422.871094 688.191406 422.339844 C 688.242188 421.8125 688.269531 421.285156 688.269531 420.753906 L 688.269531 411.765625 L 696.660156 411.765625 L 724.550781 429.320312 C 724.921875 429.546875 725.324219 429.660156 725.757812 429.664062 C 726.144531 429.664062 726.511719 429.574219 726.855469 429.394531 C 727.214844 429.195312 727.5 428.917969 727.707031 428.5625 C 727.914062 428.210938 728.015625 427.828125 728.015625 427.417969 L 728.015625 411.585938 C 728.984375 411.453125 729.933594 411.230469 730.863281 410.925781 C 731.792969 410.625 732.6875 410.238281 733.546875 409.777344 C 734.40625 409.3125 735.21875 408.777344 735.980469 408.167969 C 736.742188 407.558594 737.445312 406.886719 738.089844 406.15625 C 738.730469 405.421875 739.304688 404.636719 739.804688 403.800781 C 740.304688 402.964844 740.726562 402.09375 741.070312 401.183594 C 741.414062 400.269531 741.671875 399.335938 741.847656 398.378906 C 742.023438 397.421875 742.113281 396.457031 742.113281 395.484375 L 742.113281 370.800781 C 742.113281 370.269531 742.085938 369.742188 742.03125 369.210938 C 741.980469 368.683594 741.898438 368.15625 741.796875 367.636719 C 741.691406 367.113281 741.558594 366.601562 741.402344 366.089844 C 741.25 365.582031 741.066406 365.082031 740.863281 364.589844 C 740.65625 364.101562 740.429688 363.621094 740.175781 363.152344 C 739.925781 362.683594 739.652344 362.226562 739.351562 361.785156 C 739.054688 361.34375 738.738281 360.917969 738.398438 360.507812 C 738.058594 360.09375 737.703125 359.703125 737.324219 359.324219 C 736.945312 358.949219 736.550781 358.59375 736.136719 358.253906 C 735.722656 357.917969 735.296875 357.601562 734.851562 357.304688 C 734.40625 357.007812 733.949219 356.734375 733.480469 356.484375 C 733.007812 356.234375 732.523438 356.003906 732.03125 355.800781 C 731.539062 355.597656 731.035156 355.417969 730.523438 355.261719 C 730.011719 355.105469 729.496094 354.976562 728.972656 354.871094 C 728.445312 354.765625 727.917969 354.6875 727.386719 354.632812 C 726.855469 354.582031 726.320312 354.554688 725.785156 354.550781 Z M 683.75 420.753906 C 683.75 421.523438 683.671875 422.289062 683.519531 423.046875 C 683.367188 423.800781 683.144531 424.539062 682.847656 425.25 C 682.550781 425.960938 682.183594 426.640625 681.753906 427.28125 C 681.320312 427.921875 680.832031 428.515625 680.285156 429.0625 C 679.734375 429.609375 679.136719 430.09375 678.492188 430.523438 C 677.847656 430.953125 677.167969 431.316406 676.449219 431.613281 C 675.734375 431.90625 674.992188 432.128906 674.234375 432.28125 C 673.472656 432.433594 672.703125 432.507812 671.925781 432.511719 L 656.699219 432.511719 C 656.257812 432.507812 655.851562 432.625 655.480469 432.871094 L 630.492188 448.613281 L 630.492188 434.695312 C 630.492188 434.398438 630.4375 434.113281 630.320312 433.835938 C 630.207031 433.5625 630.042969 433.320312 629.832031 433.109375 C 629.621094 432.898438 629.375 432.734375 629.097656 432.621094 C 628.824219 432.507812 628.535156 432.449219 628.234375 432.449219 C 627.457031 432.449219 626.6875 432.375 625.929688 432.222656 C 625.167969 432.070312 624.425781 431.847656 623.710938 431.550781 C 622.992188 431.257812 622.3125 430.894531 621.664062 430.464844 C 621.019531 430.035156 620.421875 429.550781 619.875 429.003906 C 619.324219 428.457031 618.832031 427.863281 618.402344 427.222656 C 617.96875 426.582031 617.605469 425.902344 617.304688 425.191406 C 617.007812 424.476562 616.78125 423.742188 616.628906 422.988281 C 616.476562 422.230469 616.398438 421.464844 616.394531 420.691406 L 616.394531 396.070312 C 616.398438 395.296875 616.476562 394.535156 616.628906 393.777344 C 616.78125 393.019531 617.007812 392.285156 617.304688 391.570312 C 617.605469 390.859375 617.96875 390.179688 618.402344 389.539062 C 618.832031 388.898438 619.324219 388.304688 619.875 387.757812 C 620.421875 387.214844 621.019531 386.726562 621.664062 386.296875 C 622.3125 385.867188 622.992188 385.507812 623.710938 385.210938 C 624.425781 384.914062 625.167969 384.691406 625.929688 384.539062 C 626.6875 384.390625 627.457031 384.3125 628.234375 384.3125 L 671.914062 384.3125 C 672.6875 384.3125 673.457031 384.390625 674.21875 384.539062 C 674.980469 384.691406 675.71875 384.914062 676.433594 385.210938 C 677.152344 385.507812 677.832031 385.871094 678.476562 386.296875 C 679.121094 386.726562 679.71875 387.214844 680.269531 387.761719 C 680.816406 388.304688 681.308594 388.898438 681.738281 389.542969 C 682.167969 390.183594 682.535156 390.859375 682.832031 391.574219 C 683.128906 392.285156 683.355469 393.019531 683.507812 393.777344 C 683.65625 394.535156 683.734375 395.296875 683.734375 396.070312 Z M 737.625 395.484375 C 737.625 396.257812 737.546875 397.023438 737.394531 397.777344 C 737.238281 398.535156 737.015625 399.269531 736.714844 399.984375 C 736.417969 400.695312 736.050781 401.375 735.621094 402.015625 C 735.1875 402.65625 734.699219 403.25 734.148438 403.796875 C 733.597656 404.339844 733 404.828125 732.355469 405.257812 C 731.710938 405.6875 731.027344 406.046875 730.3125 406.34375 C 729.59375 406.640625 728.855469 406.863281 728.09375 407.015625 C 727.332031 407.167969 726.5625 407.242188 725.785156 407.242188 C 725.488281 407.242188 725.199219 407.300781 724.921875 407.414062 C 724.644531 407.527344 724.402344 407.691406 724.191406 407.902344 C 723.976562 408.113281 723.8125 408.355469 723.699219 408.628906 C 723.585938 408.90625 723.527344 409.191406 723.527344 409.488281 L 723.527344 423.34375 L 698.527344 407.601562 C 698.15625 407.359375 697.75 407.238281 697.304688 407.242188 L 688.269531 407.242188 L 688.269531 396.070312 C 688.269531 395.539062 688.242188 395.007812 688.1875 394.476562 C 688.136719 393.949219 688.058594 393.421875 687.953125 392.902344 C 687.847656 392.378906 687.71875 391.863281 687.5625 391.355469 C 687.40625 390.84375 687.226562 390.34375 687.019531 389.851562 C 686.816406 389.363281 686.585938 388.882812 686.335938 388.414062 C 686.082031 387.941406 685.808594 387.488281 685.511719 387.042969 C 685.214844 386.601562 684.894531 386.175781 684.554688 385.765625 C 684.214844 385.351562 683.855469 384.960938 683.476562 384.582031 C 683.101562 384.207031 682.703125 383.851562 682.289062 383.511719 C 681.875 383.175781 681.449219 382.859375 681.003906 382.5625 C 680.558594 382.265625 680.101562 381.992188 679.628906 381.742188 C 679.15625 381.492188 678.671875 381.265625 678.179688 381.058594 C 677.683594 380.855469 677.179688 380.675781 676.667969 380.523438 C 676.15625 380.367188 675.640625 380.238281 675.113281 380.132812 C 674.589844 380.03125 674.0625 379.953125 673.527344 379.898438 C 672.996094 379.847656 672.460938 379.820312 671.925781 379.820312 L 670.253906 379.820312 L 670.253906 370.832031 C 670.257812 370.0625 670.332031 369.296875 670.484375 368.539062 C 670.636719 367.78125 670.863281 367.046875 671.160156 366.335938 C 671.457031 365.621094 671.820312 364.945312 672.253906 364.304688 C 672.683594 363.664062 673.175781 363.070312 673.722656 362.523438 C 674.273438 361.976562 674.867188 361.488281 675.515625 361.0625 C 676.160156 360.632812 676.839844 360.269531 677.558594 359.972656 C 678.273438 359.679688 679.011719 359.453125 679.773438 359.304688 C 680.535156 359.152344 681.304688 359.074219 682.078125 359.074219 L 725.757812 359.074219 C 726.535156 359.074219 727.300781 359.152344 728.0625 359.304688 C 728.824219 359.453125 729.5625 359.679688 730.28125 359.972656 C 731 360.269531 731.679688 360.632812 732.324219 361.058594 C 732.972656 361.488281 733.570312 361.976562 734.117188 362.523438 C 734.667969 363.066406 735.15625 363.660156 735.589844 364.304688 C 736.023438 364.945312 736.386719 365.621094 736.6875 366.335938 C 736.984375 367.046875 737.210938 367.78125 737.363281 368.539062 C 737.515625 369.296875 737.59375 370.058594 737.59375 370.832031 Z M 737.625 395.484375 " fill-opacity="1" fill-rule="nonzero"/></g><path fill="#000000" d="M 652.089844 393.492188 C 651.898438 393.113281 651.621094 392.8125 651.257812 392.589844 C 650.894531 392.367188 650.5 392.257812 650.074219 392.257812 C 649.648438 392.257812 649.25 392.367188 648.886719 392.589844 C 648.523438 392.8125 648.246094 393.113281 648.054688 393.492188 L 634.125 420.78125 C 633.96875 421.050781 633.875 421.335938 633.839844 421.640625 C 633.804688 421.945312 633.832031 422.246094 633.917969 422.542969 C 634.007812 422.835938 634.152344 423.101562 634.347656 423.335938 C 634.546875 423.574219 634.785156 423.761719 635.058594 423.902344 C 635.335938 424.039062 635.625 424.121094 635.933594 424.140625 C 636.242188 424.160156 636.542969 424.121094 636.835938 424.019531 C 637.125 423.917969 637.386719 423.761719 637.613281 423.554688 C 637.839844 423.34375 638.019531 423.101562 638.144531 422.820312 L 642.949219 413.414062 L 657.199219 413.414062 L 661.941406 422.820312 C 662.070312 423.101562 662.246094 423.34375 662.472656 423.554688 C 662.699219 423.761719 662.960938 423.917969 663.253906 424.019531 C 663.542969 424.121094 663.84375 424.160156 664.152344 424.140625 C 664.460938 424.121094 664.753906 424.039062 665.027344 423.902344 C 665.304688 423.761719 665.539062 423.574219 665.738281 423.335938 C 665.9375 423.101562 666.078125 422.835938 666.167969 422.542969 C 666.257812 422.246094 666.28125 421.945312 666.246094 421.640625 C 666.210938 421.335938 666.117188 421.050781 665.964844 420.78125 Z M 645.238281 408.921875 L 650.074219 399.46875 L 654.894531 408.921875 Z M 645.238281 408.921875 " fill-opacity="1" fill-rule="nonzero"/><path fill="#000000" d="M 717.140625 393.703125 L 708.332031 387.800781 C 710.160156 384.925781 711.667969 381.890625 712.847656 378.695312 L 715.863281 378.695312 C 716.160156 378.695312 716.449219 378.640625 716.726562 378.523438 C 717.003906 378.410156 717.246094 378.25 717.460938 378.039062 C 717.671875 377.828125 717.835938 377.585938 717.949219 377.308594 C 718.0625 377.035156 718.121094 376.746094 718.121094 376.449219 C 718.121094 376.152344 718.0625 375.863281 717.949219 375.589844 C 717.835938 375.3125 717.671875 375.070312 717.460938 374.859375 C 717.246094 374.648438 717.003906 374.488281 716.726562 374.375 C 716.449219 374.257812 716.160156 374.203125 715.863281 374.203125 L 706.734375 374.203125 L 706.734375 369.53125 C 706.734375 369.230469 706.675781 368.945312 706.5625 368.667969 C 706.449219 368.394531 706.285156 368.152344 706.074219 367.941406 C 705.859375 367.730469 705.617188 367.566406 705.339844 367.453125 C 705.0625 367.339844 704.773438 367.28125 704.476562 367.28125 C 704.175781 367.28125 703.886719 367.339844 703.609375 367.453125 C 703.332031 367.566406 703.089844 367.730469 702.878906 367.941406 C 702.664062 368.152344 702.503906 368.394531 702.386719 368.667969 C 702.273438 368.945312 702.214844 369.230469 702.214844 369.53125 L 702.214844 374.203125 L 692.066406 374.203125 C 691.765625 374.203125 691.476562 374.257812 691.199219 374.375 C 690.921875 374.488281 690.679688 374.648438 690.46875 374.859375 C 690.253906 375.070312 690.09375 375.3125 689.976562 375.589844 C 689.863281 375.863281 689.804688 376.152344 689.804688 376.449219 C 689.804688 376.746094 689.863281 377.035156 689.976562 377.308594 C 690.09375 377.585938 690.253906 377.828125 690.46875 378.039062 C 690.679688 378.25 690.921875 378.410156 691.199219 378.523438 C 691.476562 378.640625 691.765625 378.695312 692.066406 378.695312 L 708.042969 378.695312 C 707.078125 380.988281 705.925781 383.179688 704.582031 385.269531 L 698.902344 381.464844 C 698.648438 381.300781 698.371094 381.1875 698.074219 381.128906 C 697.773438 381.070312 697.476562 381.070312 697.179688 381.132812 C 696.878906 381.191406 696.605469 381.308594 696.351562 381.476562 C 696.101562 381.644531 695.890625 381.855469 695.722656 382.109375 C 695.554688 382.363281 695.441406 382.636719 695.382812 382.933594 C 695.324219 383.230469 695.328125 383.527344 695.386719 383.824219 C 695.449219 384.121094 695.566406 384.394531 695.734375 384.644531 C 695.90625 384.894531 696.117188 385.105469 696.371094 385.269531 L 701.976562 389.015625 C 700.21875 391.222656 698.277344 393.253906 696.144531 395.109375 C 695.921875 395.308594 695.746094 395.542969 695.613281 395.8125 C 695.484375 396.082031 695.410156 396.363281 695.390625 396.664062 C 695.375 396.960938 695.414062 397.25 695.511719 397.535156 C 695.613281 397.816406 695.761719 398.070312 695.960938 398.292969 C 696.160156 398.515625 696.394531 398.691406 696.664062 398.824219 C 696.933594 398.953125 697.21875 399.027344 697.519531 399.042969 C 697.820312 399.0625 698.113281 399.023438 698.394531 398.925781 C 698.679688 398.828125 698.933594 398.679688 699.160156 398.480469 C 701.582031 396.371094 703.785156 394.054688 705.769531 391.53125 L 714.65625 397.523438 C 715.035156 397.773438 715.453125 397.898438 715.90625 397.898438 C 716.402344 397.894531 716.847656 397.75 717.246094 397.457031 C 717.644531 397.160156 717.914062 396.78125 718.0625 396.308594 C 718.207031 395.839844 718.195312 395.371094 718.03125 394.90625 C 717.867188 394.441406 717.582031 394.070312 717.171875 393.792969 Z M 717.140625 393.703125 " fill-opacity="1" fill-rule="nonzero"/><g fill="#ad0000" fill-opacity="1"><g transform="translate(53.113986, 430.413308)"><g><path d="M 18.71875 -0.3125 C 18.144531 -0.15625 17.25 0 16.03125 0.15625 C 14.8125 0.3125 13.601562 0.390625 12.40625 0.390625 C 11.207031 0.390625 10.148438 0.296875 9.234375 0.109375 C 8.328125 -0.0664062 7.5625 -0.390625 6.9375 -0.859375 C 6.3125 -1.328125 5.84375 -1.976562 5.53125 -2.8125 C 5.21875 -3.644531 5.0625 -4.734375 5.0625 -6.078125 L 5.0625 -47.265625 C 5.632812 -47.367188 6.546875 -47.507812 7.796875 -47.6875 C 9.046875 -47.875 10.242188 -47.96875 11.390625 -47.96875 C 12.585938 -47.96875 13.640625 -47.875 14.546875 -47.6875 C 15.453125 -47.507812 16.21875 -47.1875 16.84375 -46.71875 C 17.46875 -46.25 17.9375 -45.597656 18.25 -44.765625 C 18.5625 -43.941406 18.71875 -42.851562 18.71875 -41.5 Z M 18.71875 -0.3125 "/></g></g></g><g fill="#ad0000" fill-opacity="1"><g transform="translate(78.932007, 430.413308)"><g><path d="M 2.421875 -18.953125 C 2.421875 -22.390625 2.9375 -25.367188 3.96875 -27.890625 C 5.007812 -30.410156 6.453125 -32.5 8.296875 -34.15625 C 10.148438 -35.820312 12.3125 -37.054688 14.78125 -37.859375 C 17.25 -38.671875 19.914062 -39.078125 22.78125 -39.078125 C 23.820312 -39.078125 24.832031 -38.984375 25.8125 -38.796875 C 26.800781 -38.617188 27.609375 -38.398438 28.234375 -38.140625 L 28.234375 -50.78125 C 28.753906 -50.9375 29.585938 -51.101562 30.734375 -51.28125 C 31.878906 -51.46875 33.046875 -51.5625 34.234375 -51.5625 C 35.378906 -51.5625 36.40625 -51.484375 37.3125 -51.328125 C 38.226562 -51.171875 39 -50.859375 39.625 -50.390625 C 40.25 -49.921875 40.71875 -49.28125 41.03125 -48.46875 C 41.34375 -47.664062 41.5 -46.613281 41.5 -45.3125 L 41.5 -8.34375 C 41.5 -5.90625 40.351562 -3.957031 38.0625 -2.5 C 36.550781 -1.507812 34.597656 -0.640625 32.203125 0.109375 C 29.816406 0.867188 27.066406 1.25 23.953125 1.25 C 20.566406 1.25 17.535156 0.78125 14.859375 -0.15625 C 12.179688 -1.09375 9.914062 -2.441406 8.0625 -4.203125 C 6.21875 -5.972656 4.816406 -8.09375 3.859375 -10.5625 C 2.898438 -13.039062 2.421875 -15.835938 2.421875 -18.953125 Z M 24.5625 -28.703125 C 21.757812 -28.703125 19.601562 -27.894531 18.09375 -26.28125 C 16.582031 -24.675781 15.828125 -22.234375 15.828125 -18.953125 C 15.828125 -15.734375 16.53125 -13.300781 17.9375 -11.65625 C 19.34375 -10.019531 21.375 -9.203125 24.03125 -9.203125 C 24.957031 -9.203125 25.796875 -9.34375 26.546875 -9.625 C 27.304688 -9.914062 27.894531 -10.242188 28.3125 -10.609375 L 28.3125 -27.765625 C 27.269531 -28.390625 26.019531 -28.703125 24.5625 -28.703125 Z M 24.5625 -28.703125 "/></g></g></g><g fill="#ad0000" fill-opacity="1"><g transform="translate(126.668049, 430.413308)"><g><path d="M 3.75 -48.4375 C 3.75 -50.414062 4.410156 -52.078125 5.734375 -53.421875 C 7.054688 -54.773438 8.8125 -55.453125 11 -55.453125 C 13.1875 -55.453125 14.941406 -54.773438 16.265625 -53.421875 C 17.585938 -52.078125 18.25 -50.414062 18.25 -48.4375 C 18.25 -46.457031 17.585938 -44.789062 16.265625 -43.4375 C 14.941406 -42.09375 13.1875 -41.421875 11 -41.421875 C 8.8125 -41.421875 7.054688 -42.09375 5.734375 -43.4375 C 4.410156 -44.789062 3.75 -46.457031 3.75 -48.4375 Z M 17.625 -0.078125 C 17.050781 0.0234375 16.207031 0.164062 15.09375 0.34375 C 13.976562 0.53125 12.847656 0.625 11.703125 0.625 C 10.554688 0.625 9.523438 0.546875 8.609375 0.390625 C 7.703125 0.234375 6.9375 -0.078125 6.3125 -0.546875 C 5.6875 -1.015625 5.207031 -1.648438 4.875 -2.453125 C 4.539062 -3.265625 4.375 -4.316406 4.375 -5.609375 L 4.375 -37.359375 C 4.9375 -37.460938 5.773438 -37.601562 6.890625 -37.78125 C 8.015625 -37.96875 9.148438 -38.0625 10.296875 -38.0625 C 11.441406 -38.0625 12.46875 -37.984375 13.375 -37.828125 C 14.28125 -37.671875 15.046875 -37.359375 15.671875 -36.890625 C 16.296875 -36.421875 16.773438 -35.785156 17.109375 -34.984375 C 17.453125 -34.179688 17.625 -33.128906 17.625 -31.828125 Z M 17.625 -0.078125 "/></g></g></g><g fill="#ad0000" fill-opacity="1"><g transform="translate(150.692075, 430.413308)"><g><path d="M 43.296875 -18.953125 C 43.296875 -15.734375 42.800781 -12.859375 41.8125 -10.328125 C 40.820312 -7.804688 39.425781 -5.6875 37.625 -3.96875 C 35.832031 -2.257812 33.6875 -0.960938 31.1875 -0.078125 C 28.695312 0.804688 25.921875 1.25 22.859375 1.25 C 19.785156 1.25 17 0.78125 14.5 -0.15625 C 12.007812 -1.09375 9.863281 -2.429688 8.0625 -4.171875 C 6.269531 -5.910156 4.878906 -8.03125 3.890625 -10.53125 C 2.910156 -13.03125 2.421875 -15.835938 2.421875 -18.953125 C 2.421875 -22.023438 2.910156 -24.804688 3.890625 -27.296875 C 4.878906 -29.796875 6.269531 -31.914062 8.0625 -33.65625 C 9.863281 -35.394531 12.007812 -36.734375 14.5 -37.671875 C 17 -38.609375 19.785156 -39.078125 22.859375 -39.078125 C 25.921875 -39.078125 28.695312 -38.59375 31.1875 -37.625 C 33.6875 -36.664062 35.832031 -35.316406 37.625 -33.578125 C 39.425781 -31.835938 40.820312 -29.71875 41.8125 -27.21875 C 42.800781 -24.726562 43.296875 -21.972656 43.296875 -18.953125 Z M 15.984375 -18.953125 C 15.984375 -15.785156 16.59375 -13.351562 17.8125 -11.65625 C 19.039062 -9.96875 20.75 -9.125 22.9375 -9.125 C 25.113281 -9.125 26.785156 -9.984375 27.953125 -11.703125 C 29.128906 -13.421875 29.71875 -15.835938 29.71875 -18.953125 C 29.71875 -22.078125 29.117188 -24.484375 27.921875 -26.171875 C 26.722656 -27.859375 25.035156 -28.703125 22.859375 -28.703125 C 20.671875 -28.703125 18.976562 -27.859375 17.78125 -26.171875 C 16.582031 -24.484375 15.984375 -22.078125 15.984375 -18.953125 Z M 15.984375 -18.953125 "/></g></g></g><g fill="#ad0000" fill-opacity="1"><g transform="translate(198.428115, 430.413308)"><g><path d="M 22.234375 -39.078125 C 24.359375 -39.078125 26.445312 -38.773438 28.5 -38.171875 C 30.5625 -37.578125 32.347656 -36.679688 33.859375 -35.484375 C 35.410156 -36.523438 37.160156 -37.382812 39.109375 -38.0625 C 41.066406 -38.738281 43.421875 -39.078125 46.171875 -39.078125 C 48.148438 -39.078125 50.085938 -38.816406 51.984375 -38.296875 C 53.878906 -37.773438 55.566406 -36.953125 57.046875 -35.828125 C 58.535156 -34.710938 59.722656 -33.234375 60.609375 -31.390625 C 61.492188 -29.546875 61.9375 -27.296875 61.9375 -24.640625 L 61.9375 -0.078125 C 61.414062 0.078125 60.59375 0.234375 59.46875 0.390625 C 58.351562 0.546875 57.195312 0.625 56 0.625 C 54.851562 0.625 53.828125 0.546875 52.921875 0.390625 C 52.015625 0.234375 51.25 -0.078125 50.625 -0.546875 C 50 -1.015625 49.515625 -1.648438 49.171875 -2.453125 C 48.835938 -3.265625 48.671875 -4.316406 48.671875 -5.609375 L 48.671875 -24.265625 C 48.671875 -25.816406 48.226562 -26.941406 47.34375 -27.640625 C 46.457031 -28.347656 45.265625 -28.703125 43.765625 -28.703125 C 43.035156 -28.703125 42.253906 -28.53125 41.421875 -28.1875 C 40.585938 -27.851562 39.960938 -27.503906 39.546875 -27.140625 C 39.597656 -26.929688 39.625 -26.734375 39.625 -26.546875 C 39.625 -26.367188 39.625 -26.203125 39.625 -26.046875 L 39.625 -0.078125 C 39.050781 0.078125 38.203125 0.234375 37.078125 0.390625 C 35.960938 0.546875 34.835938 0.625 33.703125 0.625 C 32.554688 0.625 31.523438 0.546875 30.609375 0.390625 C 29.703125 0.234375 28.9375 -0.078125 28.3125 -0.546875 C 27.6875 -1.015625 27.203125 -1.648438 26.859375 -2.453125 C 26.523438 -3.265625 26.359375 -4.316406 26.359375 -5.609375 L 26.359375 -24.265625 C 26.359375 -25.816406 25.878906 -26.941406 24.921875 -27.640625 C 23.960938 -28.347656 22.804688 -28.703125 21.453125 -28.703125 C 20.515625 -28.703125 19.707031 -28.554688 19.03125 -28.265625 C 18.351562 -27.984375 17.78125 -27.710938 17.3125 -27.453125 L 17.3125 -0.078125 C 16.789062 0.078125 15.972656 0.234375 14.859375 0.390625 C 13.742188 0.546875 12.585938 0.625 11.390625 0.625 C 10.242188 0.625 9.210938 0.546875 8.296875 0.390625 C 7.390625 0.234375 6.625 -0.078125 6 -0.546875 C 5.375 -1.015625 4.894531 -1.648438 4.5625 -2.453125 C 4.226562 -3.265625 4.0625 -4.316406 4.0625 -5.609375 L 4.0625 -29.171875 C 4.0625 -30.578125 4.359375 -31.695312 4.953125 -32.53125 C 5.546875 -33.363281 6.363281 -34.140625 7.40625 -34.859375 C 9.175781 -36.109375 11.375 -37.125 14 -37.90625 C 16.625 -38.6875 19.367188 -39.078125 22.234375 -39.078125 Z M 22.234375 -39.078125 "/></g></g></g><g fill="#ad0000" fill-opacity="1"><g transform="translate(266.444183, 430.413308)"><g><path d="M 20.28125 -8.421875 C 21.164062 -8.421875 22.140625 -8.507812 23.203125 -8.6875 C 24.265625 -8.875 25.054688 -9.125 25.578125 -9.4375 L 25.578125 -15.671875 L 19.96875 -15.203125 C 18.507812 -15.097656 17.3125 -14.785156 16.375 -14.265625 C 15.4375 -13.753906 14.96875 -12.976562 14.96875 -11.9375 C 14.96875 -10.894531 15.367188 -10.046875 16.171875 -9.390625 C 16.984375 -8.742188 18.351562 -8.421875 20.28125 -8.421875 Z M 19.65625 -39.078125 C 22.46875 -39.078125 25.03125 -38.789062 27.34375 -38.21875 C 29.65625 -37.644531 31.628906 -36.773438 33.265625 -35.609375 C 34.898438 -34.441406 36.160156 -32.957031 37.046875 -31.15625 C 37.929688 -29.363281 38.375 -27.242188 38.375 -24.796875 L 38.375 -7.328125 C 38.375 -5.972656 37.992188 -4.867188 37.234375 -4.015625 C 36.484375 -3.160156 35.585938 -2.421875 34.546875 -1.796875 C 31.171875 0.234375 26.414062 1.25 20.28125 1.25 C 17.519531 1.25 15.035156 0.988281 12.828125 0.46875 C 10.617188 -0.0507812 8.722656 -0.832031 7.140625 -1.875 C 5.554688 -2.914062 4.332031 -4.238281 3.46875 -5.84375 C 2.613281 -7.457031 2.1875 -9.332031 2.1875 -11.46875 C 2.1875 -15.050781 3.25 -17.804688 5.375 -19.734375 C 7.507812 -21.660156 10.8125 -22.859375 15.28125 -23.328125 L 25.5 -24.40625 L 25.5 -24.953125 C 25.5 -26.460938 24.835938 -27.539062 23.515625 -28.1875 C 22.191406 -28.84375 20.28125 -29.171875 17.78125 -29.171875 C 15.800781 -29.171875 13.875 -28.960938 12 -28.546875 C 10.132812 -28.128906 8.445312 -27.609375 6.9375 -26.984375 C 6.257812 -27.453125 5.6875 -28.164062 5.21875 -29.125 C 4.757812 -30.09375 4.53125 -31.097656 4.53125 -32.140625 C 4.53125 -33.484375 4.851562 -34.554688 5.5 -35.359375 C 6.144531 -36.171875 7.144531 -36.863281 8.5 -37.4375 C 10.007812 -38.007812 11.789062 -38.425781 13.84375 -38.6875 C 15.894531 -38.945312 17.832031 -39.078125 19.65625 -39.078125 Z M 19.65625 -39.078125 "/></g></g></g><g fill="#ad0000" fill-opacity="1"><g transform="translate(310.904225, 430.413308)"><g/></g></g><g fill="#ad0000" fill-opacity="1"><g transform="translate(328.532246, 430.413308)"><g><path d="M 37.75 -11.625 C 37.070312 -11.050781 36.203125 -10.59375 35.140625 -10.25 C 34.078125 -9.914062 32.84375 -9.75 31.4375 -9.75 C 29.5625 -9.75 28.007812 -9.984375 26.78125 -10.453125 C 25.5625 -10.921875 24.769531 -11.726562 24.40625 -12.875 C 22.957031 -17.445312 21.765625 -21.148438 20.828125 -23.984375 C 19.890625 -26.816406 19.160156 -29.300781 18.640625 -31.4375 L 18.25 -31.4375 C 18.09375 -28.363281 17.972656 -25.566406 17.890625 -23.046875 C 17.816406 -20.523438 17.765625 -18.066406 17.734375 -15.671875 C 17.710938 -13.285156 17.660156 -10.867188 17.578125 -8.421875 C 17.503906 -5.984375 17.390625 -3.28125 17.234375 -0.3125 C 16.554688 -0.0507812 15.671875 0.164062 14.578125 0.34375 C 13.492188 0.53125 12.40625 0.625 11.3125 0.625 C 9.019531 0.625 7.238281 0.257812 5.96875 -0.46875 C 4.695312 -1.195312 4.0625 -2.523438 4.0625 -4.453125 L 6.3125 -44.21875 C 6.726562 -44.894531 7.640625 -45.625 9.046875 -46.40625 C 10.453125 -47.1875 12.425781 -47.578125 14.96875 -47.578125 C 17.726562 -47.578125 19.890625 -47.144531 21.453125 -46.28125 C 23.015625 -45.425781 24.15625 -44.039062 24.875 -42.125 C 25.34375 -40.875 25.847656 -39.441406 26.390625 -37.828125 C 26.941406 -36.210938 27.488281 -34.546875 28.03125 -32.828125 C 28.582031 -31.117188 29.117188 -29.414062 29.640625 -27.71875 C 30.160156 -26.03125 30.628906 -24.515625 31.046875 -23.171875 L 31.4375 -23.171875 C 32.6875 -27.535156 33.929688 -31.757812 35.171875 -35.84375 C 36.421875 -39.925781 37.566406 -43.34375 38.609375 -46.09375 C 39.390625 -46.507812 40.390625 -46.859375 41.609375 -47.140625 C 42.835938 -47.429688 44.203125 -47.578125 45.703125 -47.578125 C 48.253906 -47.578125 50.332031 -47.195312 51.9375 -46.4375 C 53.550781 -45.6875 54.488281 -44.613281 54.75 -43.21875 C 54.957031 -42.175781 55.175781 -40.570312 55.40625 -38.40625 C 55.644531 -36.25 55.894531 -33.816406 56.15625 -31.109375 C 56.414062 -28.410156 56.675781 -25.550781 56.9375 -22.53125 C 57.195312 -19.519531 57.441406 -16.625 57.671875 -13.84375 C 57.910156 -11.0625 58.109375 -8.515625 58.265625 -6.203125 C 58.421875 -3.890625 58.523438 -2.109375 58.578125 -0.859375 C 57.691406 -0.335938 56.765625 0.0351562 55.796875 0.265625 C 54.835938 0.503906 53.609375 0.625 52.109375 0.625 C 50.128906 0.625 48.460938 0.285156 47.109375 -0.390625 C 45.753906 -1.066406 45.023438 -2.394531 44.921875 -4.375 C 44.609375 -10.039062 44.410156 -15.132812 44.328125 -19.65625 C 44.253906 -24.175781 44.140625 -27.972656 43.984375 -31.046875 L 43.609375 -31.046875 C 43.085938 -29.015625 42.332031 -26.460938 41.34375 -23.390625 C 40.351562 -20.328125 39.15625 -16.40625 37.75 -11.625 Z M 37.75 -11.625 "/></g></g></g><g fill="#ad0000" fill-opacity="1"><g transform="translate(392.726296, 430.413308)"><g><path d="M 20.28125 -8.421875 C 21.164062 -8.421875 22.140625 -8.507812 23.203125 -8.6875 C 24.265625 -8.875 25.054688 -9.125 25.578125 -9.4375 L 25.578125 -15.671875 L 19.96875 -15.203125 C 18.507812 -15.097656 17.3125 -14.785156 16.375 -14.265625 C 15.4375 -13.753906 14.96875 -12.976562 14.96875 -11.9375 C 14.96875 -10.894531 15.367188 -10.046875 16.171875 -9.390625 C 16.984375 -8.742188 18.351562 -8.421875 20.28125 -8.421875 Z M 19.65625 -39.078125 C 22.46875 -39.078125 25.03125 -38.789062 27.34375 -38.21875 C 29.65625 -37.644531 31.628906 -36.773438 33.265625 -35.609375 C 34.898438 -34.441406 36.160156 -32.957031 37.046875 -31.15625 C 37.929688 -29.363281 38.375 -27.242188 38.375 -24.796875 L 38.375 -7.328125 C 38.375 -5.972656 37.992188 -4.867188 37.234375 -4.015625 C 36.484375 -3.160156 35.585938 -2.421875 34.546875 -1.796875 C 31.171875 0.234375 26.414062 1.25 20.28125 1.25 C 17.519531 1.25 15.035156 0.988281 12.828125 0.46875 C 10.617188 -0.0507812 8.722656 -0.832031 7.140625 -1.875 C 5.554688 -2.914062 4.332031 -4.238281 3.46875 -5.84375 C 2.613281 -7.457031 2.1875 -9.332031 2.1875 -11.46875 C 2.1875 -15.050781 3.25 -17.804688 5.375 -19.734375 C 7.507812 -21.660156 10.8125 -22.859375 15.28125 -23.328125 L 25.5 -24.40625 L 25.5 -24.953125 C 25.5 -26.460938 24.835938 -27.539062 23.515625 -28.1875 C 22.191406 -28.84375 20.28125 -29.171875 17.78125 -29.171875 C 15.800781 -29.171875 13.875 -28.960938 12 -28.546875 C 10.132812 -28.128906 8.445312 -27.609375 6.9375 -26.984375 C 6.257812 -27.453125 5.6875 -28.164062 5.21875 -29.125 C 4.757812 -30.09375 4.53125 -31.097656 4.53125 -32.140625 C 4.53125 -33.484375 4.851562 -34.554688 5.5 -35.359375 C 6.144531 -36.171875 7.144531 -36.863281 8.5 -37.4375 C 10.007812 -38.007812 11.789062 -38.425781 13.84375 -38.6875 C 15.894531 -38.945312 17.832031 -39.078125 19.65625 -39.078125 Z M 19.65625 -39.078125 "/></g></g></g><g fill="#ad0000" fill-opacity="1"><g transform="translate(437.186339, 430.413308)"><g><path d="M 36.03125 -11.3125 C 36.03125 -7.351562 34.546875 -4.253906 31.578125 -2.015625 C 28.617188 0.210938 24.253906 1.328125 18.484375 1.328125 C 16.296875 1.328125 14.265625 1.171875 12.390625 0.859375 C 10.523438 0.546875 8.925781 0.0664062 7.59375 -0.578125 C 6.269531 -1.234375 5.234375 -2.054688 4.484375 -3.046875 C 3.734375 -4.035156 3.359375 -5.203125 3.359375 -6.546875 C 3.359375 -7.796875 3.613281 -8.847656 4.125 -9.703125 C 4.644531 -10.566406 5.269531 -11.285156 6 -11.859375 C 7.507812 -11.023438 9.238281 -10.28125 11.1875 -9.625 C 13.144531 -8.976562 15.394531 -8.65625 17.9375 -8.65625 C 19.550781 -8.65625 20.785156 -8.890625 21.640625 -9.359375 C 22.503906 -9.828125 22.9375 -10.453125 22.9375 -11.234375 C 22.9375 -11.960938 22.625 -12.535156 22 -12.953125 C 21.375 -13.367188 20.332031 -13.707031 18.875 -13.96875 L 16.53125 -14.4375 C 12.007812 -15.3125 8.644531 -16.695312 6.4375 -18.59375 C 4.226562 -20.5 3.125 -23.21875 3.125 -26.75 C 3.125 -28.675781 3.535156 -30.414062 4.359375 -31.96875 C 5.191406 -33.53125 6.363281 -34.832031 7.875 -35.875 C 9.382812 -36.914062 11.191406 -37.722656 13.296875 -38.296875 C 15.398438 -38.867188 17.726562 -39.15625 20.28125 -39.15625 C 22.207031 -39.15625 24.015625 -39.007812 25.703125 -38.71875 C 27.390625 -38.4375 28.859375 -38.007812 30.109375 -37.4375 C 31.359375 -36.863281 32.34375 -36.125 33.0625 -35.21875 C 33.789062 -34.3125 34.15625 -33.234375 34.15625 -31.984375 C 34.15625 -30.785156 33.9375 -29.753906 33.5 -28.890625 C 33.0625 -28.035156 32.503906 -27.320312 31.828125 -26.75 C 31.410156 -27.007812 30.785156 -27.28125 29.953125 -27.5625 C 29.117188 -27.851562 28.207031 -28.113281 27.21875 -28.34375 C 26.226562 -28.582031 25.226562 -28.78125 24.21875 -28.9375 C 23.207031 -29.09375 22.285156 -29.171875 21.453125 -29.171875 C 19.734375 -29.171875 18.40625 -28.972656 17.46875 -28.578125 C 16.53125 -28.191406 16.0625 -27.582031 16.0625 -26.75 C 16.0625 -26.175781 16.320312 -25.707031 16.84375 -25.34375 C 17.363281 -24.976562 18.351562 -24.644531 19.8125 -24.34375 L 22.234375 -23.796875 C 27.222656 -22.648438 30.769531 -21.070312 32.875 -19.0625 C 34.976562 -17.0625 36.03125 -14.476562 36.03125 -11.3125 Z M 36.03125 -11.3125 "/></g></g></g><g fill="#ad0000" fill-opacity="1"><g transform="translate(477.59039, 430.413308)"><g><path d="M 17.3125 -13.03125 C 17.3125 -11.675781 17.738281 -10.710938 18.59375 -10.140625 C 19.457031 -9.566406 20.671875 -9.28125 22.234375 -9.28125 C 23.015625 -9.28125 23.816406 -9.34375 24.640625 -9.46875 C 25.472656 -9.601562 26.203125 -9.773438 26.828125 -9.984375 C 27.296875 -9.410156 27.695312 -8.769531 28.03125 -8.0625 C 28.375 -7.363281 28.546875 -6.519531 28.546875 -5.53125 C 28.546875 -3.5625 27.804688 -1.953125 26.328125 -0.703125 C 24.847656 0.546875 22.234375 1.171875 18.484375 1.171875 C 13.910156 1.171875 10.390625 0.132812 7.921875 -1.9375 C 5.453125 -4.019531 4.21875 -7.40625 4.21875 -12.09375 L 4.21875 -45.46875 C 4.78125 -45.625 5.59375 -45.789062 6.65625 -45.96875 C 7.726562 -46.15625 8.863281 -46.25 10.0625 -46.25 C 12.351562 -46.25 14.132812 -45.847656 15.40625 -45.046875 C 16.675781 -44.242188 17.3125 -42.539062 17.3125 -39.9375 L 17.3125 -34.9375 L 27.53125 -34.9375 C 27.84375 -34.375 28.140625 -33.660156 28.421875 -32.796875 C 28.710938 -31.941406 28.859375 -30.992188 28.859375 -29.953125 C 28.859375 -28.128906 28.453125 -26.8125 27.640625 -26 C 26.835938 -25.195312 25.757812 -24.796875 24.40625 -24.796875 L 17.3125 -24.796875 Z M 17.3125 -13.03125 "/></g></g></g><g fill="#ad0000" fill-opacity="1"><g transform="translate(510.8184, 430.413308)"><g><path d="M 24.109375 1.25 C 21.035156 1.25 18.1875 0.820312 15.5625 -0.03125 C 12.9375 -0.894531 10.644531 -2.179688 8.6875 -3.890625 C 6.738281 -5.609375 5.207031 -7.769531 4.09375 -10.375 C 2.976562 -12.976562 2.421875 -16.019531 2.421875 -19.5 C 2.421875 -22.925781 2.976562 -25.875 4.09375 -28.34375 C 5.207031 -30.820312 6.675781 -32.851562 8.5 -34.4375 C 10.320312 -36.019531 12.398438 -37.1875 14.734375 -37.9375 C 17.078125 -38.695312 19.472656 -39.078125 21.921875 -39.078125 C 24.671875 -39.078125 27.175781 -38.660156 29.4375 -37.828125 C 31.707031 -36.992188 33.660156 -35.847656 35.296875 -34.390625 C 36.929688 -32.941406 38.203125 -31.203125 39.109375 -29.171875 C 40.023438 -27.140625 40.484375 -24.929688 40.484375 -22.546875 C 40.484375 -20.773438 39.988281 -19.421875 39 -18.484375 C 38.007812 -17.546875 36.628906 -16.945312 34.859375 -16.6875 L 15.59375 -13.8125 C 16.164062 -12.09375 17.335938 -10.800781 19.109375 -9.9375 C 20.878906 -9.082031 22.90625 -8.65625 25.1875 -8.65625 C 27.320312 -8.65625 29.335938 -8.925781 31.234375 -9.46875 C 33.140625 -10.019531 34.6875 -10.660156 35.875 -11.390625 C 36.707031 -10.867188 37.410156 -10.140625 37.984375 -9.203125 C 38.554688 -8.265625 38.84375 -7.273438 38.84375 -6.234375 C 38.84375 -3.898438 37.75 -2.160156 35.5625 -1.015625 C 33.90625 -0.128906 32.035156 0.46875 29.953125 0.78125 C 27.867188 1.09375 25.921875 1.25 24.109375 1.25 Z M 21.921875 -29.40625 C 20.671875 -29.40625 19.585938 -29.195312 18.671875 -28.78125 C 17.765625 -28.363281 17.023438 -27.828125 16.453125 -27.171875 C 15.878906 -26.523438 15.445312 -25.800781 15.15625 -25 C 14.875 -24.195312 14.707031 -23.378906 14.65625 -22.546875 L 28 -24.71875 C 27.84375 -25.757812 27.269531 -26.800781 26.28125 -27.84375 C 25.289062 -28.882812 23.835938 -29.40625 21.921875 -29.40625 Z M 21.921875 -29.40625 "/></g></g></g><g fill="#ad0000" fill-opacity="1"><g transform="translate(555.668434, 430.413308)"><g><path d="M 17.3125 -0.078125 C 16.789062 0.078125 15.972656 0.234375 14.859375 0.390625 C 13.742188 0.546875 12.585938 0.625 11.390625 0.625 C 10.242188 0.625 9.210938 0.546875 8.296875 0.390625 C 7.390625 0.234375 6.625 -0.078125 6 -0.546875 C 5.375 -1.015625 4.894531 -1.648438 4.5625 -2.453125 C 4.226562 -3.265625 4.0625 -4.316406 4.0625 -5.609375 L 4.0625 -29.015625 C 4.0625 -30.210938 4.28125 -31.238281 4.71875 -32.09375 C 5.15625 -32.957031 5.789062 -33.722656 6.625 -34.390625 C 7.457031 -35.066406 8.484375 -35.675781 9.703125 -36.21875 C 10.929688 -36.769531 12.242188 -37.253906 13.640625 -37.671875 C 15.046875 -38.085938 16.503906 -38.410156 18.015625 -38.640625 C 19.523438 -38.878906 21.035156 -39 22.546875 -39 C 25.035156 -39 27.007812 -38.515625 28.46875 -37.546875 C 29.925781 -36.585938 30.65625 -35.019531 30.65625 -32.84375 C 30.65625 -32.113281 30.550781 -31.394531 30.34375 -30.6875 C 30.132812 -29.988281 29.875 -29.351562 29.5625 -28.78125 C 28.46875 -28.78125 27.347656 -28.726562 26.203125 -28.625 C 25.054688 -28.519531 23.9375 -28.363281 22.84375 -28.15625 C 21.757812 -27.945312 20.734375 -27.722656 19.765625 -27.484375 C 18.804688 -27.253906 17.988281 -26.984375 17.3125 -26.671875 Z M 17.3125 -0.078125 "/></g></g></g></svg>